<svg data-name="图层 1" viewBox="0 0 256 256" id="图层_1" height="256" xmlns="http://www.w3.org/2000/svg" width="256">
    <defs>
        <style>.cls-1{fill:#113856;}.cls-2{fill:#79c0db;}.cls-3{fill:#3a80af;}.cls-4{fill:#db4c2c;}</style>
    </defs>
    <title>神经网络1</title>
    <g transform="matrix(0.27824272,0,0,0.27824272,-14.408801,-14.582701)">
        <path class="cls-1" d="M760.56,522.18,507,395.36l-253.6-126.8,9.7-19.46S515,375.1,516.64,375.9L770.28,502.73Z"/>
        <path class="cls-1" d="M263.06,775.78l-9.72-19.43c196.37-98.19,242-121,253.86-126.35-.24-.47,253.36-127.27,253.36-127.27l9.72,19.45L516.69,649C515,649.81,263.06,775.78,263.06,775.78Z"/>
        <polygon class="cls-1" points="267.26 772.1 249.16 760.03 502.78 379.61 520.86 391.68 267.26 772.1"/>
        <polygon class="cls-1" points="502.78 645.28 249.16 264.86 267.26 252.81 520.86 633.23 502.78 645.28"/>
        <polygon class="cls-1" points="263.06 268.56 253.36 249.1 506.96 122.31 516.69 141.76 263.06 268.56"/>
        <polygon class="cls-1" points="506.96 902.6 253.34 775.78 263.06 756.35 516.69 883.15 506.96 902.6"/>
        <path class="cls-2" d="M337.79,258.83a79.58,79.58,0,1,1-79.59-79.57A79.59,79.59,0,0,1,337.79,258.83Z"/>
        <path class="cls-2" d="M337.79,766.05a79.58,79.58,0,1,1-79.59-79.56A79.59,79.59,0,0,1,337.79,766.05Z"/>
        <path class="cls-3" d="M591.41,132a79.59,79.59,0,1,1-79.59-79.59A79.58,79.58,0,0,1,591.41,132Z"/>
        <path class="cls-3" d="M591.41,385.65a79.59,79.59,0,1,1-79.59-79.59A79.58,79.58,0,0,1,591.41,385.65Z"/>
        <path class="cls-4" d="M845,512.46a79.58,79.58,0,1,1-79.59-79.6A79.57,79.57,0,0,1,845,512.46Z"/>
        <path class="cls-3" d="M591.41,639.25a79.59,79.59,0,1,1-79.61-79.57A79.6,79.6,0,0,1,591.41,639.25Z"/>
        <path class="cls-3" d="M591.41,892.87a79.59,79.59,0,1,1-79.61-79.58A79.59,79.59,0,0,1,591.41,892.87Z"/>
    </g>
</svg>
