<svg width="256" xmlns="http://www.w3.org/2000/svg" height="256" viewBox="0 0 256 256">
    <defs>
        <style>.cls-1{fill:#fff;}.cls-2{fill:#5866d2;}.cls-3{fill:#cae2ff;}</style>
    </defs>
    <g transform="matrix(0.28577761,0,0,0.28577761,-25.251535,-18.346923)">
        <g id="图标层-轮廓化">
            <path d="M620,295.72H569.37a10.19,10.19,0,0,1-10.34-10V238.89Z" class="cls-1"/>
            <path d="M660.46,869.37l-.39.16h.54Z" class="cls-2"/>
            <path d="M657,343.72v287a180.9,180.9,0,0,0-57.8,63.8q-4,7.49-7.38,15.38a179.91,179.91,0,0,0-1.85,135.61c.35.91.71,1.81,1.08,2.71H193.17a10.18,10.18,0,0,1-10.34-10V217.71a10.19,10.19,0,0,1,10.34-10H511v78c0,32,26.17,58,58.34,58Z" class="cls-1"/>
            <path d="M440.28,364.46H282.41a29.73,29.73,0,0,1-6-.84c-23.78-5.93-23.76-40.4,0-46.31a29.13,29.13,0,0,1,6-.85H440.28C472.12,317.72,472.1,363.2,440.28,364.46Z" class="cls-2"/>
            <path d="M567.38,542.72h-285a29.73,29.73,0,0,1-6-.84c-23.78-5.93-23.76-40.39,0-46.31a29.13,29.13,0,0,1,6-.85h285C599.22,496,599.2,541.46,567.38,542.72Z" class="cls-2"/>
            <path d="M660.46,869.37l-.39.16h.54Z" class="cls-2"/>
            <path d="M771.85,144.2V600.55A180.58,180.58,0,0,0,705,607.84V319.72a23.6,23.6,0,0,0-.81-6.16q-.14-.53-.3-1.05a19,19,0,0,0-.93-2.45c-.12-.3-.26-.6-.41-.9a1.74,1.74,0,0,0-.14-.27,8.3,8.3,0,0,0-.41-.78,1.35,1.35,0,0,0-.15-.26c-.15-.28-.32-.57-.5-.84a.28.28,0,0,0-.08-.12,8.27,8.27,0,0,0-.54-.82,3.09,3.09,0,0,0-.26-.37q-.2-.29-.42-.57c-.09-.13-.19-.25-.29-.37s-.3-.38-.47-.57-.23-.28-.36-.42-.34-.38-.52-.56a1.75,1.75,0,0,0-.23-.24c-.24-.25-.49-.5-.74-.73l-.36-.34L551.39,166.15l-.36-.32c-.21-.2-.43-.39-.65-.57a22.37,22.37,0,0,0-2.25-1.65c-.18-.13-.36-.24-.54-.35s-.59-.36-.89-.52-.6-.33-.9-.48h0c-.28-.15-.57-.28-.86-.41a1.51,1.51,0,0,0-.26-.12l-.85-.35a.43.43,0,0,0-.13,0c-.33-.13-.66-.25-1-.36s-.61-.2-.92-.29-.62-.18-.93-.26-.44-.11-.67-.15l-.5-.11c-.23,0-.47-.09-.7-.12l-.41-.07-.62-.08-.62-.07-.33,0-.85,0q-.55,0-1.11,0H296.38c0-.28,0-.56,0-.84.47-17.56,8-46.87,32-46.67H739.85A32,32,0,0,1,771.85,144.2Z" class="cls-3"/>
            <path d="M923.45,709.92a180.66,180.66,0,0,0-95.76-95.75q-3.9-1.65-7.84-3.1V144.2a80.09,80.09,0,0,0-80-80H328.37c-6.56,0-12.94.17-19.05.76a80.15,80.15,0,0,0-68.95,79.24v15.51h-47.2c-32.17,0-58.34,26-58.34,58V838.24c0,32,26.17,58,58.34,58h427q4.83,5.71,10.16,11a179.93,179.93,0,0,0,197.36,38.55C918.49,908.31,962.41,800.1,923.45,709.92ZM657,630.74a180.93,180.93,0,0,0-56.12,60.76c-.57,1-1.13,2-1.68,3q-4,7.49-7.38,15.38a179.91,179.91,0,0,0-1.85,135.61c.35.91.71,1.81,1.08,2.71H193.17a10.18,10.18,0,0,1-10.34-10V217.71a10.19,10.19,0,0,1,10.34-10H511v78a57.32,57.32,0,0,0,3.63,20.14,58.44,58.44,0,0,0,54.71,37.86H657ZM559,285.72V238.89l8.61,8,22.68,21.13L620,295.72H569.37a10.44,10.44,0,0,1-3.6-.63A10,10,0,0,1,559,285.72ZM771.85,600.55A180.58,180.58,0,0,0,705,607.84V319.72a23.6,23.6,0,0,0-.81-6.16q-.14-.53-.3-1.05a19,19,0,0,0-.93-2.45c-.12-.3-.26-.6-.41-.9a1.74,1.74,0,0,0-.14-.27,8.3,8.3,0,0,0-.41-.78,1.35,1.35,0,0,0-.15-.26c-.15-.28-.32-.57-.5-.84a.28.28,0,0,0-.08-.12,8.27,8.27,0,0,0-.54-.82,3.09,3.09,0,0,0-.26-.37q-.2-.29-.42-.57c-.09-.13-.19-.25-.29-.37s-.3-.38-.47-.57-.23-.28-.36-.42-.34-.38-.52-.56a1.75,1.75,0,0,0-.23-.24c-.24-.25-.49-.5-.74-.73l-.36-.34-74.45-69.39-22.86-21.3-48.34-45.06-.36-.32c-.21-.2-.43-.39-.65-.57a22.37,22.37,0,0,0-2.25-1.65c-.18-.13-.36-.24-.54-.35s-.59-.36-.89-.52-.6-.33-.9-.48h0c-.28-.15-.57-.28-.86-.41a1.51,1.51,0,0,0-.26-.12l-.85-.35a.43.43,0,0,0-.13,0c-.33-.13-.66-.25-1-.36s-.61-.2-.92-.29-.62-.18-.93-.26-.44-.11-.67-.15l-.5-.11c-.23,0-.47-.09-.7-.12l-.41-.07-.62-.08-.62-.07-.33,0-.85,0q-.55,0-1.11,0H296.38c0-.28,0-.56,0-.84.47-17.5,7.94-46.67,31.73-46.67H739.85a32,32,0,0,1,32,32Z" class="cls-2"/>
            <path d="M825.85,663.57a131.31,131.31,0,0,0-48-14.81A131.9,131.9,0,0,0,663,694.6c-28.8,32.47-39.5,84.62-24.69,126.93a131.08,131.08,0,0,0,10.73,24c.52.91,1,1.81,1.59,2.71a132.74,132.74,0,0,0,15.87,21.13l.15.16a133.2,133.2,0,0,0,18.68,16.74c85.47,64,211,1.5,210.32-106.27A132,132,0,0,0,825.85,663.57Zm7.3,152.35L814.6,830.4l-36,28.09a24.71,24.71,0,0,1-30,0l-16.61-13L711,829.1l-9.7-7.57-7.19-5.61a27.07,27.07,0,0,1-7.11-9,22.79,22.79,0,0,1,0-19.61c4.11-8.92,13.45-15.41,24-14.3a24.83,24.83,0,0,1,9.7,3.17,31,31,0,0,1,3,1.88l15.78,12.32V701c.63-16,12.46-24,24.22-23.87a24.5,24.5,0,0,1,14.24,4.29c5.59,3.88,9.63,10.41,10,19.58v89.4l14-10.94,1.77-1.38a24,24,0,0,1,22.23-3.88,24,24,0,0,1,7.3,41.72Z" class="cls-1"/>
            <path d="M833.15,815.92,814.6,830.4l-36,28.09a24.71,24.71,0,0,1-30,0l-16.61-13L711,829.1l-9.7-7.57-7.19-5.61a27.07,27.07,0,0,1-7.11-9,22.79,22.79,0,0,1,0-19.61c4.11-8.92,13.45-15.41,24-14.3a24.83,24.83,0,0,1,9.7,3.17,31,31,0,0,1,3,1.88l15.78,12.32V743.24l.45-.8V701c.63-15.82,12.17-23.76,23.77-23.87a24.53,24.53,0,0,1,14.24,4.61c5.36,3.92,9.19,10.34,9.54,19.26v41.44l.45.8V790.4l14-10.94,1.77-1.38a24,24,0,0,1,22.23-3.88,24,24,0,0,1,7.3,41.72Z" class="cls-2"/>
            <path d="M567.38,721h-285a29.73,29.73,0,0,1-6-.84c-23.78-5.93-23.76-40.39,0-46.31a29.13,29.13,0,0,1,6-.85h285C599.22,674.25,599.2,719.72,567.38,721Z" class="cls-2"/>
        </g>
    </g>
</svg>
