<svg width="696" height="696" viewBox="0 0 696 696" fill="none" xmlns="http://www.w3.org/2000/svg">
<path d="M470.032 619.788H200.564C198.592 619.788 196.968 618.164 196.968 616.192V615.496C196.968 613.524 198.592 611.9 200.564 611.9H469.916C471.888 611.9 473.512 613.524 473.512 615.496V616.192C473.628 618.164 472.004 619.788 470.032 619.788Z" fill="#99ADF9"/>
<path d="M187.108 209.728C186.528 209.728 186.064 209.264 186.064 208.684V203.232C186.064 202.652 186.528 202.188 187.108 202.188C187.688 202.188 188.152 202.652 188.152 203.232V208.684C188.036 209.264 187.572 209.728 187.108 209.728Z" fill="#C5DFFF"/>
<path d="M187.108 258.448C186.528 258.448 186.064 257.984 186.064 257.404V245.224C186.064 244.644 186.528 244.18 187.108 244.18C187.688 244.18 188.152 244.644 188.152 245.224V257.404C188.036 257.984 187.572 258.448 187.108 258.448ZM187.108 234.088C186.528 234.088 186.064 233.624 186.064 233.044V220.864C186.064 220.284 186.528 219.82 187.108 219.82C187.688 219.82 188.152 220.284 188.152 220.864V233.044C188.036 233.624 187.572 234.088 187.108 234.088Z" fill="#C5DFFF"/>
<path d="M200.681 209.728C200.101 209.728 199.637 209.264 199.637 208.684V203.232C199.637 202.652 200.101 202.188 200.681 202.188C201.261 202.188 201.725 202.652 201.725 203.232V208.684C201.725 209.264 201.261 209.728 200.681 209.728Z" fill="#C5DFFF"/>
<path d="M200.681 258.448C200.101 258.448 199.637 257.984 199.637 257.404V245.224C199.637 244.644 200.101 244.18 200.681 244.18C201.261 244.18 201.725 244.644 201.725 245.224V257.404C201.725 257.984 201.261 258.448 200.681 258.448ZM200.681 234.088C200.101 234.088 199.637 233.624 199.637 233.044V220.864C199.637 220.284 200.101 219.82 200.681 219.82C201.261 219.82 201.725 220.284 201.725 220.864V233.044C201.725 233.624 201.261 234.088 200.681 234.088Z" fill="#C5DFFF"/>
<path d="M214.253 209.728C213.673 209.728 213.209 209.264 213.209 208.684V203.232C213.209 202.652 213.673 202.188 214.253 202.188C214.833 202.188 215.297 202.652 215.297 203.232V208.684C215.297 209.264 214.833 209.728 214.253 209.728Z" fill="#C5DFFF"/>
<path d="M214.253 282.692C213.673 282.692 213.209 282.228 213.209 281.648V269.468C213.209 268.888 213.673 268.424 214.253 268.424C214.833 268.424 215.297 268.888 215.297 269.468V281.648C215.297 282.344 214.833 282.692 214.253 282.692ZM214.253 258.448C213.673 258.448 213.209 257.984 213.209 257.404V245.224C213.209 244.644 213.673 244.18 214.253 244.18C214.833 244.18 215.297 244.644 215.297 245.224V257.404C215.297 257.984 214.833 258.448 214.253 258.448ZM214.253 234.088C213.673 234.088 213.209 233.624 213.209 233.044V220.864C213.209 220.284 213.673 219.82 214.253 219.82C214.833 219.82 215.297 220.284 215.297 220.864V233.044C215.297 233.624 214.833 234.088 214.253 234.088Z" fill="#C5DFFF"/>
<path d="M227.94 209.728C227.36 209.728 226.896 209.264 226.896 208.684V203.232C226.896 202.652 227.36 202.188 227.94 202.188C228.52 202.188 228.984 202.652 228.984 203.232V208.684C228.868 209.264 228.404 209.728 227.94 209.728Z" fill="#C5DFFF"/>
<path d="M227.94 282.692C227.36 282.692 226.896 282.228 226.896 281.648V269.468C226.896 268.888 227.36 268.424 227.94 268.424C228.52 268.424 228.984 268.888 228.984 269.468V281.648C228.868 282.344 228.404 282.692 227.94 282.692ZM227.94 258.448C227.36 258.448 226.896 257.984 226.896 257.404V245.224C226.896 244.644 227.36 244.18 227.94 244.18C228.52 244.18 228.984 244.644 228.984 245.224V257.404C228.868 257.984 228.404 258.448 227.94 258.448ZM227.94 234.088C227.36 234.088 226.896 233.624 226.896 233.044V220.864C226.896 220.284 227.36 219.82 227.94 219.82C228.52 219.82 228.984 220.284 228.984 220.864V233.044C228.868 233.624 228.404 234.088 227.94 234.088Z" fill="#C5DFFF"/>
<path d="M241.513 209.728C240.933 209.728 240.469 209.264 240.469 208.684V203.232C240.469 202.652 240.933 202.188 241.513 202.188C242.093 202.188 242.557 202.652 242.557 203.232V208.684C242.557 209.264 242.093 209.728 241.513 209.728Z" fill="#C5DFFF"/>
<path d="M241.513 282.692C240.933 282.692 240.469 282.228 240.469 281.648V269.468C240.469 268.888 240.933 268.424 241.513 268.424C242.093 268.424 242.557 268.888 242.557 269.468V281.648C242.557 282.344 242.093 282.692 241.513 282.692ZM241.513 258.448C240.933 258.448 240.469 257.984 240.469 257.404V245.224C240.469 244.644 240.933 244.18 241.513 244.18C242.093 244.18 242.557 244.644 242.557 245.224V257.404C242.557 257.984 242.093 258.448 241.513 258.448ZM241.513 234.088C240.933 234.088 240.469 233.624 240.469 233.044V220.864C240.469 220.284 240.933 219.82 241.513 219.82C242.093 219.82 242.557 220.284 242.557 220.864V233.044C242.557 233.624 242.093 234.088 241.513 234.088Z" fill="#C5DFFF"/>
<path d="M241.513 300.44C240.933 300.44 240.469 299.976 240.469 299.396V293.944C240.469 293.364 240.933 292.9 241.513 292.9C242.093 292.9 242.557 293.364 242.557 293.944V299.396C242.557 299.976 242.093 300.44 241.513 300.44Z" fill="#C5DFFF"/>
<path d="M255.084 209.728C254.504 209.728 254.04 209.264 254.04 208.684V203.232C254.04 202.652 254.504 202.188 255.084 202.188C255.664 202.188 256.128 202.652 256.128 203.232V208.684C256.128 209.264 255.664 209.728 255.084 209.728Z" fill="#C5DFFF"/>
<path d="M255.084 282.692C254.504 282.692 254.04 282.228 254.04 281.648V269.468C254.04 268.888 254.504 268.424 255.084 268.424C255.664 268.424 256.128 268.888 256.128 269.468V281.648C256.128 282.344 255.664 282.692 255.084 282.692ZM255.084 258.448C254.504 258.448 254.04 257.984 254.04 257.404V245.224C254.04 244.644 254.504 244.18 255.084 244.18C255.664 244.18 256.128 244.644 256.128 245.224V257.404C256.128 257.984 255.664 258.448 255.084 258.448ZM255.084 234.088C254.504 234.088 254.04 233.624 254.04 233.044V220.864C254.04 220.284 254.504 219.82 255.084 219.82C255.664 219.82 256.128 220.284 256.128 220.864V233.044C256.128 233.624 255.664 234.088 255.084 234.088Z" fill="#C5DFFF"/>
<path d="M255.084 300.44C254.504 300.44 254.04 299.976 254.04 299.396V293.944C254.04 293.364 254.504 292.9 255.084 292.9C255.664 292.9 256.128 293.364 256.128 293.944V299.396C256.128 299.976 255.664 300.44 255.084 300.44Z" fill="#C5DFFF"/>
<path d="M289.072 177.712C288.492 177.712 288.028 177.248 288.028 176.668V171.216C288.028 170.636 288.492 170.172 289.072 170.172C289.652 170.172 290.116 170.636 290.116 171.216V176.668C290.116 177.248 289.652 177.712 289.072 177.712Z" fill="#C5DFFF"/>
<path d="M289.072 226.316C288.492 226.316 288.028 225.852 288.028 225.272V213.092C288.028 212.512 288.492 212.048 289.072 212.048C289.652 212.048 290.116 212.512 290.116 213.092V225.272C290.116 225.968 289.652 226.316 289.072 226.316ZM289.072 202.072C288.492 202.072 288.028 201.608 288.028 201.028V188.848C288.028 188.268 288.492 187.804 289.072 187.804C289.652 187.804 290.116 188.268 290.116 188.848V201.028C290.116 201.608 289.652 202.072 289.072 202.072Z" fill="#C5DFFF"/>
<path d="M302.645 177.712C302.065 177.712 301.601 177.248 301.601 176.668V171.216C301.601 170.636 302.065 170.172 302.645 170.172C303.225 170.172 303.689 170.636 303.689 171.216V176.668C303.689 177.248 303.225 177.712 302.645 177.712Z" fill="#C5DFFF"/>
<path d="M302.645 226.316C302.065 226.316 301.601 225.852 301.601 225.272V213.092C301.601 212.512 302.065 212.048 302.645 212.048C303.225 212.048 303.689 212.512 303.689 213.092V225.272C303.689 225.968 303.225 226.316 302.645 226.316ZM302.645 202.072C302.065 202.072 301.601 201.608 301.601 201.028V188.848C301.601 188.268 302.065 187.804 302.645 187.804C303.225 187.804 303.689 188.268 303.689 188.848V201.028C303.689 201.608 303.225 202.072 302.645 202.072Z" fill="#C5DFFF"/>
<path d="M316.332 177.712C315.752 177.712 315.288 177.248 315.288 176.668V171.216C315.288 170.636 315.752 170.172 316.332 170.172C316.912 170.172 317.376 170.636 317.376 171.216V176.668C317.26 177.248 316.796 177.712 316.332 177.712Z" fill="#C5DFFF"/>
<path d="M316.332 250.676C315.752 250.676 315.288 250.212 315.288 249.632V237.452C315.288 236.872 315.752 236.408 316.332 236.408C316.912 236.408 317.376 236.872 317.376 237.452V249.632C317.26 250.328 316.796 250.676 316.332 250.676ZM316.332 226.316C315.752 226.316 315.288 225.852 315.288 225.272V213.092C315.288 212.512 315.752 212.048 316.332 212.048C316.912 212.048 317.376 212.512 317.376 213.092V225.272C317.26 225.968 316.796 226.316 316.332 226.316ZM316.332 202.072C315.752 202.072 315.288 201.608 315.288 201.028V188.848C315.288 188.268 315.752 187.804 316.332 187.804C316.912 187.804 317.376 188.268 317.376 188.848V201.028C317.26 201.608 316.796 202.072 316.332 202.072Z" fill="#C5DFFF"/>
<path d="M357.048 177.712C356.468 177.712 356.004 177.248 356.004 176.668V171.216C356.004 170.636 356.468 170.172 357.048 170.172C357.628 170.172 358.092 170.636 358.092 171.216V176.668C358.092 177.248 357.628 177.712 357.048 177.712Z" fill="#C5DFFF"/>
<path d="M357.048 250.676C356.468 250.676 356.004 250.212 356.004 249.632V237.452C356.004 236.872 356.468 236.408 357.048 236.408C357.628 236.408 358.092 236.872 358.092 237.452V249.632C358.092 250.328 357.628 250.676 357.048 250.676ZM357.048 226.316C356.468 226.316 356.004 225.852 356.004 225.272V213.092C356.004 212.512 356.468 212.048 357.048 212.048C357.628 212.048 358.092 212.512 358.092 213.092V225.272C358.092 225.968 357.628 226.316 357.048 226.316ZM357.048 202.072C356.468 202.072 356.004 201.608 356.004 201.028V188.848C356.004 188.268 356.468 187.804 357.048 187.804C357.628 187.804 358.092 188.268 358.092 188.848V201.028C358.092 201.608 357.628 202.072 357.048 202.072Z" fill="#C5DFFF"/>
<path d="M370.388 177.712C369.808 177.712 369.344 177.248 369.344 176.668V171.216C369.344 170.636 369.808 170.172 370.388 170.172C370.968 170.172 371.432 170.636 371.432 171.216V176.668C371.316 177.248 370.852 177.712 370.388 177.712Z" fill="#C5DFFF"/>
<path d="M370.388 250.676C369.808 250.676 369.344 250.212 369.344 249.632V237.452C369.344 236.872 369.808 236.408 370.388 236.408C370.968 236.408 371.432 236.872 371.432 237.452V249.632C371.316 250.328 370.852 250.676 370.388 250.676ZM370.388 226.316C369.808 226.316 369.344 225.852 369.344 225.272V213.092C369.344 212.512 369.808 212.048 370.388 212.048C370.968 212.048 371.432 212.512 371.432 213.092V225.272C371.316 225.968 370.852 226.316 370.388 226.316ZM370.388 202.072C369.808 202.072 369.344 201.608 369.344 201.028V188.848C369.344 188.268 369.808 187.804 370.388 187.804C370.968 187.804 371.432 188.268 371.432 188.848V201.028C371.316 201.608 370.852 202.072 370.388 202.072Z" fill="#C5DFFF"/>
<path d="M383.96 177.712C383.38 177.712 382.916 177.248 382.916 176.668V171.216C382.916 170.636 383.38 170.172 383.96 170.172C384.54 170.172 385.004 170.636 385.004 171.216V176.668C385.004 177.248 384.54 177.712 383.96 177.712Z" fill="#C5DFFF"/>
<path d="M383.96 250.676C383.38 250.676 382.916 250.212 382.916 249.632V237.452C382.916 236.872 383.38 236.408 383.96 236.408C384.54 236.408 385.004 236.872 385.004 237.452V249.632C385.004 250.328 384.54 250.676 383.96 250.676ZM383.96 226.316C383.38 226.316 382.916 225.852 382.916 225.272V213.092C382.916 212.512 383.38 212.048 383.96 212.048C384.54 212.048 385.004 212.512 385.004 213.092V225.272C385.004 225.968 384.54 226.316 383.96 226.316ZM383.96 202.072C383.38 202.072 382.916 201.608 382.916 201.028V188.848C382.916 188.268 383.38 187.804 383.96 187.804C384.54 187.804 385.004 188.268 385.004 188.848V201.028C385.004 201.608 384.54 202.072 383.96 202.072Z" fill="#C5DFFF"/>
<path d="M397.532 177.712C396.952 177.712 396.488 177.248 396.488 176.668V171.216C396.488 170.636 396.952 170.172 397.532 170.172C398.112 170.172 398.576 170.636 398.576 171.216V176.668C398.576 177.248 398.112 177.712 397.532 177.712Z" fill="#C5DFFF"/>
<path d="M397.532 250.676C396.952 250.676 396.488 250.212 396.488 249.632V237.452C396.488 236.872 396.952 236.408 397.532 236.408C398.112 236.408 398.576 236.872 398.576 237.452V249.632C398.576 250.328 398.112 250.676 397.532 250.676ZM397.532 226.316C396.952 226.316 396.488 225.852 396.488 225.272V213.092C396.488 212.512 396.952 212.048 397.532 212.048C398.112 212.048 398.576 212.512 398.576 213.092V225.272C398.576 225.968 398.112 226.316 397.532 226.316ZM397.532 202.072C396.952 202.072 396.488 201.608 396.488 201.028V188.848C396.488 188.268 396.952 187.804 397.532 187.804C398.112 187.804 398.576 188.268 398.576 188.848V201.028C398.576 201.608 398.112 202.072 397.532 202.072Z" fill="#C5DFFF"/>
<path d="M343.477 272.484C342.897 272.484 342.433 272.02 342.433 271.44V259.26C342.433 258.68 342.897 258.216 343.477 258.216C344.057 258.216 344.521 258.68 344.521 259.26V271.44C344.521 272.02 344.057 272.484 343.477 272.484Z" fill="#C5DFFF"/>
<path d="M357.048 272.484C356.468 272.484 356.004 272.02 356.004 271.44V259.26C356.004 258.68 356.468 258.216 357.048 258.216C357.628 258.216 358.092 258.68 358.092 259.26V271.44C358.092 272.02 357.628 272.484 357.048 272.484Z" fill="#C5DFFF"/>
<path d="M370.388 272.484C369.808 272.484 369.344 272.02 369.344 271.44V259.26C369.344 258.68 369.808 258.216 370.388 258.216C370.968 258.216 371.432 258.68 371.432 259.26V271.44C371.316 272.02 370.852 272.484 370.388 272.484Z" fill="#C5DFFF"/>
<path d="M383.96 296.844C383.38 296.844 382.916 296.38 382.916 295.8V283.62C382.916 283.04 383.38 282.576 383.96 282.576C384.54 282.576 385.004 283.04 385.004 283.62V295.8C385.004 296.38 384.54 296.844 383.96 296.844ZM383.96 272.484C383.38 272.484 382.916 272.02 382.916 271.44V259.26C382.916 258.68 383.38 258.216 383.96 258.216C384.54 258.216 385.004 258.68 385.004 259.26V271.44C385.004 272.02 384.54 272.484 383.96 272.484Z" fill="#C5DFFF"/>
<path d="M397.532 321.204C396.952 321.204 396.488 320.74 396.488 320.16V307.98C396.488 307.4 396.952 306.936 397.532 306.936C398.112 306.936 398.576 307.4 398.576 307.98V320.16C398.576 320.74 398.112 321.204 397.532 321.204ZM397.532 296.844C396.952 296.844 396.488 296.38 396.488 295.8V283.62C396.488 283.04 396.952 282.576 397.532 282.576C398.112 282.576 398.576 283.04 398.576 283.62V295.8C398.576 296.38 398.112 296.844 397.532 296.844ZM397.532 272.484C396.952 272.484 396.488 272.02 396.488 271.44V259.26C396.488 258.68 396.952 258.216 397.532 258.216C398.112 258.216 398.576 258.68 398.576 259.26V271.44C398.576 272.02 398.112 272.484 397.532 272.484Z" fill="#C5DFFF"/>
<path d="M411.221 321.204C410.641 321.204 410.177 320.74 410.177 320.16V307.98C410.177 307.4 410.641 306.936 411.221 306.936C411.801 306.936 412.265 307.4 412.265 307.98V320.16C412.149 320.74 411.685 321.204 411.221 321.204ZM411.221 296.844C410.641 296.844 410.177 296.38 410.177 295.8V283.62C410.177 283.04 410.641 282.576 411.221 282.576C411.801 282.576 412.265 283.04 412.265 283.62V295.8C412.149 296.38 411.685 296.844 411.221 296.844ZM411.221 272.484C410.641 272.484 410.177 272.02 410.177 271.44V259.26C410.177 258.68 410.641 258.216 411.221 258.216C411.801 258.216 412.265 258.68 412.265 259.26V271.44C412.149 272.02 411.685 272.484 411.221 272.484Z" fill="#C5DFFF"/>
<path d="M424.792 321.204C424.212 321.204 423.748 320.74 423.748 320.16V307.98C423.748 307.4 424.212 306.936 424.792 306.936C425.372 306.936 425.836 307.4 425.836 307.98V320.16C425.72 320.74 425.372 321.204 424.792 321.204ZM424.792 296.844C424.212 296.844 423.748 296.38 423.748 295.8V283.62C423.748 283.04 424.212 282.576 424.792 282.576C425.372 282.576 425.836 283.04 425.836 283.62V295.8C425.72 296.38 425.372 296.844 424.792 296.844ZM424.792 272.484C424.212 272.484 423.748 272.02 423.748 271.44V259.26C423.748 258.68 424.212 258.216 424.792 258.216C425.372 258.216 425.836 258.68 425.836 259.26V271.44C425.72 272.02 425.372 272.484 424.792 272.484Z" fill="#C5DFFF"/>
<path d="M424.792 338.836C424.212 338.836 423.748 338.372 423.748 337.792V332.34C423.748 331.76 424.212 331.296 424.792 331.296C425.372 331.296 425.836 331.76 425.836 332.34V337.792C425.72 338.372 425.372 338.836 424.792 338.836Z" fill="#C5DFFF"/>
<path d="M438.364 321.204C437.784 321.204 437.32 320.74 437.32 320.16V307.98C437.32 307.4 437.784 306.936 438.364 306.936C438.944 306.936 439.408 307.4 439.408 307.98V320.16C439.408 320.74 438.944 321.204 438.364 321.204ZM438.364 296.844C437.784 296.844 437.32 296.38 437.32 295.8V283.62C437.32 283.04 437.784 282.576 438.364 282.576C438.944 282.576 439.408 283.04 439.408 283.62V295.8C439.408 296.38 438.944 296.844 438.364 296.844ZM438.364 272.484C437.784 272.484 437.32 272.02 437.32 271.44V259.26C437.32 258.68 437.784 258.216 438.364 258.216C438.944 258.216 439.408 258.68 439.408 259.26V271.44C439.408 272.02 438.944 272.484 438.364 272.484Z" fill="#C5DFFF"/>
<path d="M438.364 338.836C437.784 338.836 437.32 338.372 437.32 337.792V332.34C437.32 331.76 437.784 331.296 438.364 331.296C438.944 331.296 439.408 331.76 439.408 332.34V337.792C439.408 338.372 438.944 338.836 438.364 338.836Z" fill="#C5DFFF"/>
<path d="M411.221 177.712C410.641 177.712 410.177 177.248 410.177 176.668V171.216C410.177 170.636 410.641 170.172 411.221 170.172C411.801 170.172 412.265 170.636 412.265 171.216V176.668C412.149 177.248 411.685 177.712 411.221 177.712Z" fill="#C5DFFF"/>
<path d="M411.221 250.676C410.641 250.676 410.177 250.212 410.177 249.632V237.452C410.177 236.872 410.641 236.408 411.221 236.408C411.801 236.408 412.265 236.872 412.265 237.452V249.632C412.149 250.328 411.685 250.676 411.221 250.676ZM411.221 226.316C410.641 226.316 410.177 225.852 410.177 225.272V213.092C410.177 212.512 410.641 212.048 411.221 212.048C411.801 212.048 412.265 212.512 412.265 213.092V225.272C412.149 225.968 411.685 226.316 411.221 226.316ZM411.221 202.072C410.641 202.072 410.177 201.608 410.177 201.028V188.848C410.177 188.268 410.641 187.804 411.221 187.804C411.801 187.804 412.265 188.268 412.265 188.848V201.028C412.149 201.608 411.685 202.072 411.221 202.072Z" fill="#C5DFFF"/>
<path d="M424.792 177.712C424.212 177.712 423.748 177.248 423.748 176.668V171.216C423.748 170.636 424.212 170.172 424.792 170.172C425.372 170.172 425.836 170.636 425.836 171.216V176.668C425.72 177.248 425.372 177.712 424.792 177.712Z" fill="#C5DFFF"/>
<path d="M424.792 250.676C424.212 250.676 423.748 250.212 423.748 249.632V237.452C423.748 236.872 424.212 236.408 424.792 236.408C425.372 236.408 425.836 236.872 425.836 237.452V249.632C425.72 250.328 425.372 250.676 424.792 250.676ZM424.792 226.316C424.212 226.316 423.748 225.852 423.748 225.272V213.092C423.748 212.512 424.212 212.048 424.792 212.048C425.372 212.048 425.836 212.512 425.836 213.092V225.272C425.72 225.968 425.372 226.316 424.792 226.316ZM424.792 202.072C424.212 202.072 423.748 201.608 423.748 201.028V188.848C423.748 188.268 424.212 187.804 424.792 187.804C425.372 187.804 425.836 188.268 425.836 188.848V201.028C425.72 201.608 425.372 202.072 424.792 202.072Z" fill="#C5DFFF"/>
<path d="M438.364 177.712C437.784 177.712 437.32 177.248 437.32 176.668V171.216C437.32 170.636 437.784 170.172 438.364 170.172C438.944 170.172 439.408 170.636 439.408 171.216V176.668C439.408 177.248 438.944 177.712 438.364 177.712Z" fill="#C5DFFF"/>
<path d="M438.364 250.676C437.784 250.676 437.32 250.212 437.32 249.632V237.452C437.32 236.872 437.784 236.408 438.364 236.408C438.944 236.408 439.408 236.872 439.408 237.452V249.632C439.408 250.328 438.944 250.676 438.364 250.676ZM438.364 226.316C437.784 226.316 437.32 225.852 437.32 225.272V213.092C437.32 212.512 437.784 212.048 438.364 212.048C438.944 212.048 439.408 212.512 439.408 213.092V225.272C439.408 225.968 438.944 226.316 438.364 226.316ZM438.364 202.072C437.784 202.072 437.32 201.608 437.32 201.028V188.848C437.32 188.268 437.784 187.804 438.364 187.804C438.944 187.804 439.408 188.268 439.408 188.848V201.028C439.408 201.608 438.944 202.072 438.364 202.072Z" fill="#C5DFFF"/>
<path d="M329.904 177.712C329.324 177.712 328.86 177.248 328.86 176.668V171.216C328.86 170.636 329.324 170.172 329.904 170.172C330.484 170.172 330.948 170.636 330.948 171.216V176.668C330.832 177.248 330.484 177.712 329.904 177.712Z" fill="#C5DFFF"/>
<path d="M329.904 250.676C329.324 250.676 328.86 250.212 328.86 249.632V237.452C328.86 236.872 329.324 236.408 329.904 236.408C330.484 236.408 330.948 236.872 330.948 237.452V249.632C330.832 250.328 330.484 250.676 329.904 250.676ZM329.904 226.316C329.324 226.316 328.86 225.852 328.86 225.272V213.092C328.86 212.512 329.324 212.048 329.904 212.048C330.484 212.048 330.948 212.512 330.948 213.092V225.272C330.832 225.968 330.484 226.316 329.904 226.316ZM329.904 202.072C329.324 202.072 328.86 201.608 328.86 201.028V188.848C328.86 188.268 329.324 187.804 329.904 187.804C330.484 187.804 330.948 188.268 330.948 188.848V201.028C330.832 201.608 330.484 202.072 329.904 202.072Z" fill="#C5DFFF"/>
<path d="M343.477 177.712C342.897 177.712 342.433 177.248 342.433 176.668V171.216C342.433 170.636 342.897 170.172 343.477 170.172C344.057 170.172 344.521 170.636 344.521 171.216V176.668C344.521 177.248 344.057 177.712 343.477 177.712Z" fill="#C5DFFF"/>
<path d="M343.477 250.676C342.897 250.676 342.433 250.212 342.433 249.632V237.452C342.433 236.872 342.897 236.408 343.477 236.408C344.057 236.408 344.521 236.872 344.521 237.452V249.632C344.521 250.328 344.057 250.676 343.477 250.676ZM343.477 226.316C342.897 226.316 342.433 225.852 342.433 225.272V213.092C342.433 212.512 342.897 212.048 343.477 212.048C344.057 212.048 344.521 212.512 344.521 213.092V225.272C344.521 225.968 344.057 226.316 343.477 226.316ZM343.477 202.072C342.897 202.072 342.433 201.608 342.433 201.028V188.848C342.433 188.268 342.897 187.804 343.477 187.804C344.057 187.804 344.521 188.268 344.521 188.848V201.028C344.521 201.608 344.057 202.072 343.477 202.072Z" fill="#C5DFFF"/>
<path d="M468.176 272.136C467.596 272.136 467.132 271.672 467.132 271.092V265.64C467.132 265.06 467.596 264.596 468.176 264.596C468.756 264.596 469.22 265.06 469.22 265.64V271.092C469.104 271.672 468.64 272.136 468.176 272.136Z" fill="#C5DFFF"/>
<path d="M468.176 345.099C467.596 345.099 467.132 344.635 467.132 344.055V331.875C467.132 331.295 467.596 330.831 468.176 330.831C468.756 330.831 469.22 331.295 469.22 331.875V344.055C469.104 344.635 468.64 345.099 468.176 345.099ZM468.176 320.739C467.596 320.739 467.132 320.275 467.132 319.695V307.515C467.132 306.935 467.596 306.471 468.176 306.471C468.756 306.471 469.22 306.935 469.22 307.515V319.695C469.104 320.275 468.64 320.739 468.176 320.739ZM468.176 296.379C467.596 296.379 467.132 295.915 467.132 295.335V283.155C467.132 282.575 467.596 282.111 468.176 282.111C468.756 282.111 469.22 282.575 469.22 283.155V295.335C469.104 296.031 468.64 296.379 468.176 296.379Z" fill="#C5DFFF"/>
<path d="M468.176 362.731C467.596 362.731 467.132 362.267 467.132 361.687V356.235C467.132 355.655 467.596 355.191 468.176 355.191C468.756 355.191 469.22 355.655 469.22 356.235V361.687C469.104 362.383 468.64 362.731 468.176 362.731Z" fill="#C5DFFF"/>
<path d="M481.748 272.136C481.168 272.136 480.704 271.672 480.704 271.092V265.64C480.704 265.06 481.168 264.596 481.748 264.596C482.328 264.596 482.792 265.06 482.792 265.64V271.092C482.676 271.672 482.328 272.136 481.748 272.136Z" fill="#C5DFFF"/>
<path d="M481.748 345.099C481.168 345.099 480.704 344.635 480.704 344.055V331.875C480.704 331.295 481.168 330.831 481.748 330.831C482.328 330.831 482.792 331.295 482.792 331.875V344.055C482.676 344.635 482.328 345.099 481.748 345.099ZM481.748 320.739C481.168 320.739 480.704 320.275 480.704 319.695V307.515C480.704 306.935 481.168 306.471 481.748 306.471C482.328 306.471 482.792 306.935 482.792 307.515V319.695C482.676 320.275 482.328 320.739 481.748 320.739ZM481.748 296.379C481.168 296.379 480.704 295.915 480.704 295.335V283.155C480.704 282.575 481.168 282.111 481.748 282.111C482.328 282.111 482.792 282.575 482.792 283.155V295.335C482.676 296.031 482.328 296.379 481.748 296.379Z" fill="#C5DFFF"/>
<path d="M481.748 362.731C481.168 362.731 480.704 362.267 480.704 361.687V356.235C480.704 355.655 481.168 355.191 481.748 355.191C482.328 355.191 482.792 355.655 482.792 356.235V361.687C482.676 362.383 482.328 362.731 481.748 362.731Z" fill="#C5DFFF"/>
<path d="M495.32 272.136C494.74 272.136 494.276 271.672 494.276 271.092V265.64C494.276 265.06 494.74 264.596 495.32 264.596C495.9 264.596 496.364 265.06 496.364 265.64V271.092C496.364 271.672 495.9 272.136 495.32 272.136Z" fill="#C5DFFF"/>
<path d="M495.32 345.099C494.74 345.099 494.276 344.635 494.276 344.055V331.875C494.276 331.295 494.74 330.831 495.32 330.831C495.9 330.831 496.364 331.295 496.364 331.875V344.055C496.364 344.635 495.9 345.099 495.32 345.099ZM495.32 320.739C494.74 320.739 494.276 320.275 494.276 319.695V307.515C494.276 306.935 494.74 306.471 495.32 306.471C495.9 306.471 496.364 306.935 496.364 307.515V319.695C496.364 320.275 495.9 320.739 495.32 320.739ZM495.32 296.379C494.74 296.379 494.276 295.915 494.276 295.335V283.155C494.276 282.575 494.74 282.111 495.32 282.111C495.9 282.111 496.364 282.575 496.364 283.155V295.335C496.364 296.031 495.9 296.379 495.32 296.379Z" fill="#C5DFFF"/>
<path d="M509.008 272.136C508.428 272.136 507.964 271.672 507.964 271.092V265.64C507.964 265.06 508.428 264.596 509.008 264.596C509.588 264.596 510.052 265.06 510.052 265.64V271.092C509.936 271.672 509.472 272.136 509.008 272.136Z" fill="#C5DFFF"/>
<path d="M509.008 345.099C508.428 345.099 507.964 344.635 507.964 344.055V331.875C507.964 331.295 508.428 330.831 509.008 330.831C509.588 330.831 510.052 331.295 510.052 331.875V344.055C509.936 344.635 509.472 345.099 509.008 345.099ZM509.008 320.739C508.428 320.739 507.964 320.275 507.964 319.695V307.515C507.964 306.935 508.428 306.471 509.008 306.471C509.588 306.471 510.052 306.935 510.052 307.515V319.695C509.936 320.275 509.472 320.739 509.008 320.739ZM509.008 296.379C508.428 296.379 507.964 295.915 507.964 295.335V283.155C507.964 282.575 508.428 282.111 509.008 282.111C509.588 282.111 510.052 282.575 510.052 283.155V295.335C509.936 296.031 509.472 296.379 509.008 296.379Z" fill="#C5DFFF"/>
<path d="M522.58 272.136C522 272.136 521.536 271.672 521.536 271.092V265.64C521.536 265.06 522 264.596 522.58 264.596C523.16 264.596 523.624 265.06 523.624 265.64V271.092C523.508 271.672 523.16 272.136 522.58 272.136Z" fill="#C5DFFF"/>
<path d="M522.58 320.739C522 320.739 521.536 320.275 521.536 319.695V307.515C521.536 306.935 522 306.471 522.58 306.471C523.16 306.471 523.624 306.935 523.624 307.515V319.695C523.508 320.275 523.16 320.739 522.58 320.739ZM522.58 296.379C522 296.379 521.536 295.915 521.536 295.335V283.155C521.536 282.575 522 282.111 522.58 282.111C523.16 282.111 523.624 282.575 523.624 283.155V295.335C523.508 296.031 523.16 296.379 522.58 296.379Z" fill="#C5DFFF"/>
<path d="M536.151 272.136C535.571 272.136 535.107 271.672 535.107 271.092V265.64C535.107 265.06 535.571 264.596 536.151 264.596C536.731 264.596 537.195 265.06 537.195 265.64V271.092C537.195 271.672 536.731 272.136 536.151 272.136Z" fill="#C5DFFF"/>
<path d="M536.151 296.379C535.571 296.379 535.107 295.915 535.107 295.335V283.155C535.107 282.575 535.571 282.111 536.151 282.111C536.731 282.111 537.195 282.575 537.195 283.155V295.335C537.195 296.031 536.731 296.379 536.151 296.379Z" fill="#C5DFFF"/>
<path d="M453.328 158.688C453.328 163.096 409.712 167.852 362.5 167.852C315.288 167.852 279.56 171.1 274.572 164.256C273.876 163.328 273.876 162.4 274.572 161.588C278.052 157.296 298.352 155.904 301.832 155.672C302.18 155.672 302.296 155.672 302.296 155.672C302.296 155.672 288.376 140.36 299.048 127.948C309.72 115.536 321.204 126.44 321.204 126.44C321.204 126.44 316.68 102.66 329.556 96.7438C329.904 96.6278 330.252 96.3958 330.6 96.2798C344.404 91.4078 349.74 109.156 350.088 110.084C350.088 110.084 350.436 86.1878 371.664 84.0998C375.26 83.7518 378.508 84.4478 381.292 85.9558C394.632 93.0318 398.228 116.812 398.228 116.812C399.156 115.884 409.596 106.024 420.848 112.404C432.448 119.016 426.068 136.068 425.836 136.532C426.184 136.416 434.42 134.56 437.088 139.2C439.756 143.956 437.088 151.264 437.088 151.264C437.088 151.264 443.236 152.308 447.876 154.048C450.544 155.092 452.864 156.368 453.212 157.876C453.328 158.34 453.328 158.456 453.328 158.688Z" fill="#20486D"/>
<path d="M306.703 151.148C309.255 155.904 310.995 157.644 310.995 157.644C310.995 157.644 307.051 157.76 301.715 155.672C302.063 155.672 302.179 155.672 302.179 155.672C302.179 155.672 288.259 140.36 298.931 127.948C309.603 115.536 321.087 126.44 321.087 126.44C321.087 126.44 316.563 102.66 329.439 96.7441C328.047 99.5281 326.539 104.168 326.655 109.968C326.887 120.176 330.251 134.792 330.251 134.792C330.251 134.792 316.331 126.788 307.399 129.92C298.699 133.052 304.151 146.508 306.703 151.148Z" fill="#233A50"/>
<path d="M453.328 158.688C453.328 163.096 409.712 167.852 362.5 167.852C315.288 167.852 279.56 171.1 274.572 164.256C273.876 163.328 273.876 162.4 274.572 161.588C280.372 163.444 292.204 165.648 315.288 164.836C353.916 163.328 431.52 163.096 450.428 158.92C451.472 158.688 452.4 158.456 453.328 158.224C453.328 158.34 453.328 158.456 453.328 158.688Z" fill="#233A50"/>
<path d="M381.292 86.1883C376.42 86.6523 369.692 88.2762 363.544 93.0322C352.524 101.616 351.48 117.856 351.48 117.856L350.204 110.316C350.204 110.316 350.552 86.4202 371.78 84.3322C375.26 83.9842 378.508 84.6803 381.292 86.1883Z" fill="#506893"/>
<path d="M433.144 153.351C433.144 153.351 434.768 148.015 431.404 143.607C428.04 139.199 418.992 142.679 418.992 142.679C418.992 142.679 426.184 124.699 417.484 117.043C409.016 109.619 398.692 116.695 398.228 117.043C399.156 116.115 409.596 106.255 420.848 112.635C432.448 119.247 426.068 136.299 425.836 136.763C426.184 136.647 434.42 134.791 437.088 139.431C439.756 144.187 437.088 151.495 437.088 151.495C437.088 151.495 443.236 152.539 447.876 154.279C443.12 153.815 433.144 153.351 433.144 153.351Z" fill="#506893"/>
<path d="M264.596 196.388C261.348 199.868 248.008 201.84 222.372 204.508C201.724 206.712 176.088 207.524 174.232 202.884C172.376 198.244 188.964 196.388 188.964 196.388C188.964 196.388 183.512 189.892 191.168 182.004C196.736 176.204 205.784 181.772 206.132 182.004C206.016 181.656 198.012 165.184 205.668 156.6C206.944 155.208 208.568 153.932 210.772 153.12C210.888 153.12 211.004 153.004 211.12 153.004C226.664 147.436 235.248 179.8 235.248 179.8C235.248 179.8 249.98 172.144 254.852 178.988C259.492 185.368 256.824 191.98 256.476 192.792V192.908C256.476 192.908 262.856 192.908 264.712 194.416C265.292 194.88 265.408 195.576 264.596 196.388Z" fill="#20486D"/>
<path d="M264.596 196.389C261.348 199.869 248.008 201.841 222.372 204.509C201.724 206.713 176.088 207.525 174.232 202.885C172.376 198.245 188.964 196.389 188.964 196.389C188.964 196.389 183.512 189.893 191.168 182.005C196.736 176.205 205.784 181.773 206.132 182.005C206.016 181.657 198.012 165.185 205.668 156.601C205.088 159.269 204.972 163.097 206.248 168.085C209.496 181.193 214.948 188.733 214.948 188.733C214.948 188.733 201.028 180.613 194.3 184.789C187.572 188.965 194.996 197.665 194.996 197.665C194.996 197.665 181.192 198.709 181.076 202.073C180.844 205.321 219.936 200.797 238.728 198.941C254.852 197.433 261.58 196.041 264.828 194.301C265.292 194.881 265.408 195.577 264.596 196.389Z" fill="#233A50"/>
<path d="M256.476 192.792L255.084 193.488C255.084 193.488 256.244 182.932 250.676 180.148C244.992 177.364 232.696 185.832 232.696 185.832C232.696 185.832 231.652 174.696 224.576 164.024C220.052 157.18 214.484 154.28 211.12 153.004C226.664 147.436 235.248 179.8 235.248 179.8C235.248 179.8 249.98 172.144 254.852 178.988C259.492 185.368 256.824 192.096 256.476 192.792Z" fill="#506893"/>
<path d="M235.365 216.804L217.617 239.076C217.037 239.888 215.761 239.192 216.109 238.264L216.225 238.148L221.561 224.576C221.561 224.46 221.677 224.344 221.561 224.228C221.561 223.764 221.213 223.532 220.749 223.532L213.789 224.344C212.165 224.576 211.005 222.952 211.701 221.444L211.817 221.096L217.617 208.684L217.733 208.452C218.081 207.64 217.501 206.828 216.689 206.828L209.729 206.944C207.409 206.944 206.017 204.508 207.177 202.536L207.409 202.072L223.649 174.928C223.997 174.464 224.461 174.232 224.925 174.348C225.505 174.464 225.969 175.044 225.853 175.74L222.837 192.908C222.721 193.836 223.533 194.648 224.345 194.416L232.001 192.792C232.581 192.676 233.161 192.792 233.625 193.024C234.437 193.604 234.901 194.764 234.437 195.808L226.781 211.468C226.433 212.164 226.897 212.976 227.709 213.092C227.709 213.092 227.709 213.092 227.825 213.092L233.857 213.208C234.205 213.208 234.553 213.324 234.785 213.44C235.829 214.136 236.293 215.644 235.365 216.804Z" fill="#FEC272"/>
<path d="M217.616 208.799V208.568C217.964 207.756 217.384 206.943 216.572 206.943L209.612 207.059C207.292 207.059 205.901 204.623 207.061 202.651L207.292 202.188C207.64 202.652 208.221 203 209.381 203.116C211.468 203.232 217.152 203.116 218.892 203.116C220.516 203.348 217.616 208.799 217.616 208.799Z" fill="#FF8D76"/>
<path d="M221.56 224.112C221.56 223.648 221.212 223.416 220.748 223.416L213.788 224.228C212.164 224.46 211.004 222.836 211.7 221.328L211.816 220.98C212.396 221.096 213.44 221.328 215.064 221.096C217.964 220.748 222.14 219.936 222.488 220.284C222.72 220.864 221.792 223.532 221.56 224.112Z" fill="#FF8D76"/>
<path d="M222.72 193.024C222.604 193.952 223.416 194.764 224.228 194.532C222.024 195.344 219.82 195.576 220.168 193.372C220.516 191.4 224.112 177.132 224.692 174.464C225.272 174.58 225.736 175.16 225.62 175.856L222.72 193.024Z" fill="#FF8D76"/>
<path d="M226.781 211.7C226.433 212.396 226.897 213.208 227.709 213.324C227.593 213.324 227.477 213.324 227.361 213.324C225.389 213.324 223.533 212.744 224.925 210.076C226.085 207.756 232.117 196.388 233.741 193.372C234.553 193.952 235.017 195.112 234.553 196.156L226.781 211.7Z" fill="#FF8D76"/>
<path d="M235.364 216.804L217.616 239.076C217.036 239.888 215.76 239.192 216.108 238.264L216.224 238.148C216.92 237.452 218.196 236.292 219.936 233.74C222.024 230.724 232.58 216.572 234.784 213.556C235.828 214.136 236.292 215.644 235.364 216.804Z" fill="#FF8D76"/>
<path d="M381.872 230.376L339.184 283.968C337.676 285.824 334.776 284.2 335.588 281.88L335.704 281.532L348.696 248.82C348.812 248.588 348.812 248.356 348.812 248.008C348.812 247.08 347.884 246.152 346.84 246.384L330.136 248.356C326.308 248.82 323.524 244.992 325.148 241.512L325.496 240.816L339.3 211.004L339.532 210.54C340.344 208.684 338.952 206.48 336.98 206.596L320.276 206.944C314.708 207.06 311.228 201.028 314.128 196.272L314.708 195.344L353.684 130.152C354.38 128.876 355.656 128.528 356.816 128.76C358.208 129.108 359.368 130.384 359.02 132.124L351.828 173.304C351.48 175.508 353.336 177.364 355.54 176.9L374.1 172.956C375.492 172.608 376.884 172.956 377.928 173.652C380.016 174.928 381.06 177.712 379.784 180.264L361.456 217.964C360.644 219.704 361.804 221.676 363.66 221.792H363.776L378.16 222.024C378.972 222.024 379.668 222.256 380.364 222.604C382.916 223.88 384.076 227.708 381.872 230.376Z" fill="#FEC272"/>
<path d="M339.3 211.005H339.184L339.416 210.541C340.228 208.685 338.836 206.481 336.864 206.597L320.16 206.945C314.592 207.061 311.112 201.029 314.012 196.273L314.592 195.345C315.404 196.273 316.912 197.433 319.464 197.549C324.452 197.781 338.14 197.433 342.2 197.665C346.26 197.897 339.3 211.005 339.3 211.005Z" fill="#FF8D76"/>
<path d="M348.696 248.008C348.696 247.08 347.768 246.152 346.724 246.384L330.02 248.356C326.192 248.82 323.408 244.992 325.032 241.512L325.38 240.816C326.888 241.164 329.44 241.512 333.152 241.048C339.996 240.12 350.204 238.148 351.016 239.192C351.596 240.12 349.276 246.616 348.696 248.008Z" fill="#FF8D76"/>
<path d="M351.596 173.304C351.248 175.508 353.104 177.364 355.308 176.9C349.856 178.872 344.636 179.336 345.564 174.232C346.376 169.592 354.96 135.14 356.468 128.876C357.86 129.224 359.02 130.5 358.672 132.24L351.596 173.304Z" fill="#FF8D76"/>
<path d="M361.224 217.964C360.412 219.704 361.572 221.676 363.428 221.792C363.08 221.792 362.848 221.792 362.5 221.792C357.628 221.792 353.336 220.4 356.584 213.904C359.368 208.22 373.752 181.076 377.696 173.652C379.784 174.928 380.828 177.712 379.552 180.264L361.224 217.964Z" fill="#FF8D76"/>
<path d="M381.872 230.377L339.184 283.969C337.676 285.825 334.776 284.201 335.588 281.881L335.704 281.533C337.444 279.909 340.344 277.009 344.636 270.977C349.74 263.669 375.028 229.68 380.248 222.604C382.916 223.88 384.076 227.709 381.872 230.377Z" fill="#FF8D76"/>
<path d="M507.036 261.696L492.304 280.14C491.84 280.836 490.796 280.256 491.028 279.444V279.328L495.436 268.076C495.436 267.96 495.436 267.844 495.436 267.844C495.436 267.496 495.088 267.264 494.74 267.264L488.94 267.96C487.664 268.076 486.62 266.8 487.2 265.64L487.316 265.408L492.072 255.2L492.188 255.084C492.536 254.388 491.956 253.692 491.26 253.692L485.46 253.808C483.604 253.808 482.328 251.72 483.372 250.096L483.604 249.748L497.06 227.244C497.292 226.78 497.756 226.664 498.104 226.78C498.568 226.896 499.032 227.36 498.916 227.94L496.48 242.092C496.364 242.788 497.06 243.484 497.756 243.368L504.136 241.976C504.6 241.86 505.064 241.976 505.412 242.208C506.108 242.672 506.456 243.6 506.108 244.528L499.728 257.52C499.496 258.1 499.844 258.796 500.424 258.796L505.412 258.912C505.644 258.912 505.992 259.028 506.108 259.144C507.384 259.492 507.732 260.768 507.036 261.696Z" fill="#FEC272"/>
<path d="M492.42 254.969V254.853C492.768 254.157 492.188 253.461 491.492 253.461L485.692 253.577C483.836 253.577 482.56 251.489 483.604 249.865L483.836 249.517C484.068 249.865 484.648 250.213 485.576 250.329C487.316 250.445 491.956 250.329 493.464 250.329C494.972 250.329 492.42 254.969 492.42 254.969Z" fill="#FF8D76"/>
<path d="M495.668 267.728C495.668 267.38 495.32 267.148 494.972 267.148L489.172 267.844C487.896 267.96 486.852 266.684 487.432 265.524L487.548 265.292C488.012 265.408 488.94 265.524 490.216 265.408C492.536 265.06 496.132 264.48 496.364 264.828C496.596 265.06 495.784 267.264 495.668 267.728Z" fill="#FF8D76"/>
<path d="M496.596 241.976C496.48 242.672 497.176 243.368 497.872 243.252C496.016 243.948 494.16 244.064 494.508 242.324C494.74 240.7 497.756 228.868 498.336 226.664C498.8 226.78 499.264 227.244 499.148 227.824L496.596 241.976Z" fill="#FF8D76"/>
<path d="M499.96 257.404C499.728 257.984 500.076 258.68 500.656 258.68C500.54 258.68 500.424 258.68 500.308 258.68C498.684 258.68 497.176 258.216 498.336 255.896C499.264 253.924 504.252 244.528 505.644 241.976C506.34 242.44 506.689 243.368 506.34 244.296L499.96 257.404Z" fill="#FF8D76"/>
<path d="M507.036 261.696L492.304 280.14C491.84 280.836 490.796 280.256 491.028 279.444V279.328C491.608 278.748 492.652 277.82 494.044 275.732C495.784 273.18 504.484 261.464 506.34 259.028C507.384 259.492 507.732 260.768 507.036 261.696Z" fill="#FF8D76"/>
<path d="M540.908 250.444C540.792 253.112 519.68 256.012 496.132 256.592C472.584 257.172 457.62 254.852 459.244 252.184C460.868 249.632 469.452 248.704 469.452 248.704C469.452 248.704 461.332 242.44 465.624 233.624C470.032 224.808 479.428 231.072 479.428 231.072C479.428 231.072 476.412 217.616 485.228 213.324C486.62 212.628 488.244 212.164 490.216 212.048C491.26 211.932 492.188 212.048 493.232 212.164C505.876 214.02 511.212 234.088 511.212 234.088C511.212 234.088 518.404 226.548 523.74 231.072C529.076 235.596 526.756 243.484 526.756 243.484C526.756 243.484 529.308 241.86 532.556 242.672C534.296 243.136 534.992 244.296 535.34 245.456C535.688 246.5 535.688 247.428 535.688 247.428C535.688 247.428 538.472 247.66 539.98 248.704C540.56 249.052 540.908 249.632 540.908 250.444Z" fill="#20486D"/>
<path d="M540.908 250.444C540.792 253.112 519.68 256.012 496.132 256.592C472.584 257.172 457.62 254.852 459.244 252.184C460.868 249.632 469.452 248.704 469.452 248.704C469.452 248.704 461.332 242.44 465.624 233.624C470.032 224.808 479.428 231.072 479.428 231.072C479.428 231.072 476.412 217.616 485.228 213.324C484.3 215.644 483.14 219.356 483.372 223.184C483.952 230.376 486.852 235.944 487.084 236.292C486.62 236.06 476.412 230.956 470.96 234.088C465.392 237.336 473.512 249.864 473.512 249.864C473.512 249.864 466.088 251.488 469.684 253.112C473.28 254.736 508.196 254.504 521.536 252.996C530.468 251.952 536.732 249.98 539.98 248.704C540.56 249.052 540.908 249.632 540.908 250.444Z" fill="#233A50"/>
<path d="M535.34 245.34C534.992 245.108 534.528 244.992 534.18 244.76C530.932 243.136 524.204 246.384 524.204 246.384C524.204 246.384 525.596 236.292 521.536 233.624C517.476 230.956 509.936 239.656 509.936 239.656C509.936 239.656 509.008 234.204 504.252 224.808C501.352 219.124 496.596 214.716 493.232 212.048C505.876 213.904 511.212 233.972 511.212 233.972C511.212 233.972 518.404 226.432 523.74 230.956C529.076 235.48 526.756 243.368 526.756 243.368C526.756 243.368 529.308 241.744 532.556 242.556C534.18 242.904 534.992 244.18 535.34 245.34Z" fill="#506893"/>
<path d="M360.992 541.024V593.224C360.992 597.4 357.628 600.88 353.336 600.88H218.428C214.252 600.88 210.772 597.516 210.772 593.224V541.024C210.772 536.848 214.136 533.368 218.428 533.368H353.452C357.628 533.368 360.992 536.848 360.992 541.024Z" fill="#E1ECFF"/>
<path d="M233.161 551.464C235.339 551.464 237.105 549.698 237.105 547.52C237.105 545.342 235.339 543.576 233.161 543.576C230.983 543.576 229.217 545.342 229.217 547.52C229.217 549.698 230.983 551.464 233.161 551.464Z" fill="#20486D"/>
<path d="M247.197 551.464C249.375 551.464 251.141 549.698 251.141 547.52C251.141 545.342 249.375 543.576 247.197 543.576C245.019 543.576 243.253 545.342 243.253 547.52C243.253 549.698 245.019 551.464 247.197 551.464Z" fill="#FF8D76"/>
<path d="M261.117 551.464C263.295 551.464 265.061 549.698 265.061 547.52C265.061 545.342 263.295 543.576 261.117 543.576C258.939 543.576 257.173 545.342 257.173 547.52C257.173 549.698 258.939 551.464 261.117 551.464Z" fill="#FF8D76"/>
<path d="M339.881 568.4H305.429C303.921 568.4 302.645 567.124 302.645 565.616C302.645 564.108 303.921 562.832 305.429 562.832H339.881C341.389 562.832 342.665 564.108 342.665 565.616C342.665 567.124 341.505 568.4 339.881 568.4Z" fill="#20486D"/>
<path d="M340.576 571.416C343.78 571.416 346.376 568.82 346.376 565.616C346.376 562.413 343.78 559.816 340.576 559.816C337.373 559.816 334.776 562.413 334.776 565.616C334.776 568.82 337.373 571.416 340.576 571.416Z" fill="#FF8D76"/>
<path d="M291.392 600.88H228.404L230.724 595.196C231.884 592.296 234.668 590.44 237.8 590.44H282.112C285.244 590.44 287.912 592.296 289.188 595.196L291.392 600.88Z" fill="#20486D"/>
<path d="M344.753 600.88H229.217V612.364H344.753V600.88Z" fill="#20486D"/>
<path d="M344.753 600.88H229.217V606.564H344.753V600.88Z" fill="#233A50"/>
<path d="M222.836 533.368V600.88H218.428C214.252 600.88 210.772 597.516 210.772 593.224V541.024C210.772 536.848 214.136 533.368 218.428 533.368H222.836Z" fill="#CDE0FC"/>
<path d="M360.992 541.024V593.224C360.992 597.4 357.628 600.88 353.336 600.88H350.9V533.368H353.336C357.628 533.368 360.992 536.848 360.992 541.024Z" fill="#F0F5FC"/>
<path d="M360.992 480.124V516.78C360.992 520.956 357.628 524.436 353.336 524.436H218.428C214.252 524.436 210.772 521.072 210.772 516.78V480.124C210.772 475.948 214.136 472.468 218.428 472.468H353.452C357.628 472.468 360.992 475.948 360.992 480.124Z" fill="#E1ECFF"/>
<path d="M233.161 490.564C235.339 490.564 237.105 488.798 237.105 486.62C237.105 484.442 235.339 482.676 233.161 482.676C230.983 482.676 229.217 484.442 229.217 486.62C229.217 488.798 230.983 490.564 233.161 490.564Z" fill="#FF8D76"/>
<path d="M247.197 490.564C249.375 490.564 251.141 488.798 251.141 486.62C251.141 484.442 249.375 482.676 247.197 482.676C245.019 482.676 243.253 484.442 243.253 486.62C243.253 488.798 245.019 490.564 247.197 490.564Z" fill="#FF8D76"/>
<path d="M261.117 490.564C263.295 490.564 265.061 488.798 265.061 486.62C265.061 484.442 263.295 482.676 261.117 482.676C258.939 482.676 257.173 484.442 257.173 486.62C257.173 488.798 258.939 490.564 261.117 490.564Z" fill="#20486D"/>
<path d="M339.881 496.131H305.429C303.921 496.131 302.645 494.855 302.645 493.347C302.645 491.839 303.921 490.563 305.429 490.563H339.881C341.389 490.563 342.665 491.839 342.665 493.347C342.665 494.855 341.505 496.131 339.881 496.131Z" fill="#20486D"/>
<path d="M340.576 499.032C343.78 499.032 346.376 496.435 346.376 493.232C346.376 490.028 343.78 487.432 340.576 487.432C337.373 487.432 334.776 490.028 334.776 493.232C334.776 496.435 337.373 499.032 340.576 499.032Z" fill="#FF8D76"/>
<path d="M291.392 524.435H228.404L230.724 518.751C231.884 515.851 234.668 513.995 237.8 513.995H282.112C285.244 513.995 287.912 515.851 289.188 518.751L291.392 524.435Z" fill="#20486D"/>
<path d="M344.753 524.436H229.217V533.367H344.753V524.436Z" fill="#20486D"/>
<path d="M344.753 524.436H229.217V528.959H344.753V524.436Z" fill="#233A50"/>
<path d="M222.836 472.468V524.32H218.428C214.252 524.32 210.772 520.956 210.772 516.664V480.008C210.772 475.832 214.136 472.352 218.428 472.352H222.836V472.468Z" fill="#CDE0FC"/>
<path d="M360.992 480.124V516.78C360.992 520.956 357.628 524.436 353.336 524.436H350.9V472.584H353.336C357.628 472.468 360.992 475.948 360.992 480.124Z" fill="#F0F5FC"/>
<path d="M360.992 426.764V455.88C360.992 460.056 357.628 463.536 353.336 463.536H218.428C214.252 463.536 210.772 460.172 210.772 455.88V426.648C210.772 422.472 214.136 418.992 218.428 418.992H353.452C357.628 419.108 360.992 422.472 360.992 426.764Z" fill="#E1ECFF"/>
<path d="M233.161 437.204C235.339 437.204 237.105 435.439 237.105 433.26C237.105 431.082 235.339 429.316 233.161 429.316C230.983 429.316 229.217 431.082 229.217 433.26C229.217 435.439 230.983 437.204 233.161 437.204Z" fill="#20486D"/>
<path d="M247.197 437.204C249.375 437.204 251.141 435.439 251.141 433.26C251.141 431.082 249.375 429.316 247.197 429.316C245.019 429.316 243.253 431.082 243.253 433.26C243.253 435.439 245.019 437.204 247.197 437.204Z" fill="#FF8D76"/>
<path d="M261.117 437.204C263.295 437.204 265.061 435.439 265.061 433.26C265.061 431.082 263.295 429.316 261.117 429.316C258.939 429.316 257.173 431.082 257.173 433.26C257.173 435.439 258.939 437.204 261.117 437.204Z" fill="#FF8D76"/>
<path d="M339.881 442.656H305.429C303.921 442.656 302.645 441.38 302.645 439.872C302.645 438.364 303.921 437.088 305.429 437.088H339.881C341.389 437.088 342.665 438.364 342.665 439.872C342.665 441.38 341.505 442.656 339.881 442.656Z" fill="#20486D"/>
<path d="M340.576 445.672C343.78 445.672 346.376 443.075 346.376 439.872C346.376 436.669 343.78 434.072 340.576 434.072C337.373 434.072 334.776 436.669 334.776 439.872C334.776 443.075 337.373 445.672 340.576 445.672Z" fill="#FF8D76"/>
<path d="M291.392 463.536H228.404L230.724 457.852C231.884 454.952 234.668 453.096 237.8 453.096H282.112C285.244 453.096 287.912 454.952 289.188 457.852L291.392 463.536Z" fill="#20486D"/>
<path d="M344.753 463.536H229.217V472.468H344.753V463.536Z" fill="#20486D"/>
<path d="M344.753 463.536H229.217V468.06H344.753V463.536Z" fill="#233A50"/>
<path d="M222.836 419.108V463.536H218.428C214.252 463.536 210.772 460.172 210.772 455.88V426.648C210.772 422.472 214.136 418.992 218.428 418.992H222.836V419.108Z" fill="#CDE0FC"/>
<path d="M360.992 426.764V455.88C360.992 460.056 357.628 463.536 353.336 463.536H350.9V419.108H353.336C357.628 419.108 360.992 422.472 360.992 426.764Z" fill="#F0F5FC"/>
<path d="M360.992 373.288V402.52C360.992 406.696 357.628 410.176 353.336 410.176H218.428C214.252 410.176 210.772 406.812 210.772 402.52V373.288C210.772 369.112 214.136 365.632 218.428 365.632H353.452C357.628 365.748 360.992 369.112 360.992 373.288Z" fill="#E1ECFF"/>
<path d="M233.161 383.728C235.339 383.728 237.105 381.962 237.105 379.784C237.105 377.606 235.339 375.84 233.161 375.84C230.983 375.84 229.217 377.606 229.217 379.784C229.217 381.962 230.983 383.728 233.161 383.728Z" fill="#FF8D76"/>
<path d="M247.197 383.728C249.375 383.728 251.141 381.962 251.141 379.784C251.141 377.606 249.375 375.84 247.197 375.84C245.019 375.84 243.253 377.606 243.253 379.784C243.253 381.962 245.019 383.728 247.197 383.728Z" fill="#FF8D76"/>
<path d="M261.117 383.728C263.295 383.728 265.061 381.962 265.061 379.784C265.061 377.606 263.295 375.84 261.117 375.84C258.939 375.84 257.173 377.606 257.173 379.784C257.173 381.962 258.939 383.728 261.117 383.728Z" fill="#20486D"/>
<path d="M339.881 389.296H305.429C303.921 389.296 302.645 388.02 302.645 386.512C302.645 385.004 303.921 383.728 305.429 383.728H339.881C341.389 383.728 342.665 385.004 342.665 386.512C342.665 388.02 341.505 389.296 339.881 389.296Z" fill="#20486D"/>
<path d="M340.576 392.312C343.78 392.312 346.376 389.715 346.376 386.512C346.376 383.309 343.78 380.712 340.576 380.712C337.373 380.712 334.776 383.309 334.776 386.512C334.776 389.715 337.373 392.312 340.576 392.312Z" fill="#FF8D76"/>
<path d="M291.392 410.176H228.404L230.724 404.492C231.884 401.592 234.668 399.736 237.8 399.736H282.112C285.244 399.736 287.912 401.592 289.188 404.492L291.392 410.176Z" fill="#20486D"/>
<path d="M344.753 410.176H229.217V419.108H344.753V410.176Z" fill="#20486D"/>
<path d="M344.753 410.176H229.217V414.7H344.753V410.176Z" fill="#233A50"/>
<path d="M222.836 365.748V410.176H218.428C214.252 410.176 210.772 406.812 210.772 402.52V373.288C210.772 369.112 214.136 365.632 218.428 365.632H222.836V365.748Z" fill="#CDE0FC"/>
<path d="M360.992 373.288V402.52C360.992 406.696 357.628 410.176 353.336 410.176H350.9V365.748H353.336C357.628 365.748 360.992 369.112 360.992 373.288Z" fill="#F0F5FC"/>
<path d="M444.547 469.89V605.378C444.547 608.974 441.531 611.99 437.935 611.99H370.307C366.595 611.99 363.695 608.974 363.695 605.378V469.89C363.695 466.178 366.711 463.278 370.307 463.278H437.935C441.531 463.278 444.547 466.294 444.547 469.89Z" fill="#FF9798"/>
<path d="M385.155 463.278V611.99H370.307C366.595 611.99 363.695 608.974 363.695 605.378V469.89C363.695 466.178 366.711 463.278 370.307 463.278H385.155Z" fill="#F77476"/>
<path d="M372.744 478.822H407.428C409.284 478.822 410.676 480.33 410.676 482.07V497.73C410.676 499.586 409.168 500.978 407.428 500.978H372.744C370.888 500.978 369.496 499.47 369.496 497.73V482.07C369.38 480.214 370.888 478.822 372.744 478.822Z" fill="#D2DFFF"/>
<path d="M438.747 482.07V497.73C438.747 499.586 437.239 500.978 435.499 500.978H419.491C417.635 500.978 416.243 499.47 416.243 497.73V482.07C416.243 480.214 417.751 478.822 419.491 478.822H435.499C437.239 478.822 438.747 480.214 438.747 482.07Z" fill="#20486D"/>
<path d="M413.692 600.622H394.436C393.044 600.622 391.884 599.462 391.884 598.07V568.49C391.884 567.098 393.044 565.938 394.436 565.938H413.692C415.084 565.938 416.244 567.098 416.244 568.49V598.07C416.244 599.462 415.084 600.622 413.692 600.622Z" fill="#20486D"/>
<path d="M412.184 585.542H395.944C394.9 585.542 394.088 584.73 394.088 583.686V570.926C394.088 569.882 394.9 569.07 395.944 569.07H412.184C413.228 569.07 414.04 569.882 414.04 570.926V583.686C414.156 584.73 413.228 585.542 412.184 585.542Z" fill="#142966"/>
<path d="M411.952 597.49H396.176C395.016 597.49 394.088 596.562 394.088 595.402V589.95C394.088 588.79 395.016 587.862 396.176 587.862H411.952C413.112 587.862 414.04 588.79 414.04 589.95V595.402C414.156 596.562 413.112 597.49 411.952 597.49Z" fill="#142966"/>
<path d="M404.064 595.751C405.73 595.751 407.08 594.4 407.08 592.735C407.08 591.069 405.73 589.719 404.064 589.719C402.398 589.719 401.048 591.069 401.048 592.735C401.048 594.4 402.398 595.751 404.064 595.751Z" fill="#FEC272"/>
<path d="M438.748 510.838V553.062C438.748 555.034 437.24 556.658 435.268 556.658H372.744C371.584 556.658 370.424 555.962 369.844 555.034C369.496 554.454 369.264 553.758 369.264 553.062V510.838C369.264 508.866 370.772 507.242 372.744 507.242H435.268C436.892 507.242 438.284 508.402 438.632 510.026C438.748 510.374 438.748 510.606 438.748 510.838Z" fill="#20486D"/>
<path d="M436.196 513.158V550.858C436.196 552.598 434.804 553.99 433.064 553.99H375.18C374.02 553.99 373.092 553.41 372.512 552.482C372.164 552.018 372.048 551.438 372.048 550.742V513.042C372.048 511.302 373.44 509.91 375.18 509.91H433.064C434.572 509.91 435.848 510.954 436.196 512.462C436.196 512.694 436.196 512.926 436.196 513.158Z" fill="#465C73"/>
<path d="M436.196 512.462L391.072 554.106H375.18C374.02 554.106 373.092 553.526 372.512 552.598L418.796 509.91H433.064C434.572 509.91 435.848 510.954 436.196 512.462Z" fill="#6F7BA3"/>
<path d="M436.196 527.658V546.218L427.728 554.106H407.544L436.196 527.658Z" fill="#6F7BA3"/>
<path d="M399.308 509.91L371.932 535.198V516.522L379.124 509.91H399.308Z" fill="#6F7BA3"/>
<path d="M340.576 363.66H273.992L275.152 360.412L282.228 341.272L288.492 324.22L295.568 305.08L302.76 285.36C302.992 284.548 303.456 283.968 304.036 283.504C306.356 281.3 310.532 281.996 311.808 285.36L314.708 293.364L319.116 305.428L323.06 316.216L327.468 328.28L331.412 339.068L335.82 351.132L340.576 363.66Z" fill="#FF8D76"/>
<path d="M319.116 305.427L298.932 317.839L288.492 324.219L295.452 305.195L301.368 301.599L314.708 293.363L319.116 305.427Z" fill="#20486D"/>
<path d="M327.468 328.164L294.292 348.58L275.152 360.412L282.228 341.272L296.728 332.34L323.06 316.1L327.468 328.164Z" fill="#20486D"/>
<path d="M335.937 351.015L315.289 363.659H291.393L292.089 363.195L331.529 338.951L335.937 351.015Z" fill="#20486D"/>
<path d="M304.036 283.504L292.088 363.66H273.992L275.152 360.412L282.228 341.272L288.492 324.22L295.568 305.08L302.76 285.36C303.108 284.664 303.456 283.968 304.036 283.504Z" fill="#FF8D76"/>
<path d="M291.393 363.659L292.089 363.195V363.659H291.393Z" fill="#FF8D76"/>
<path d="M296.728 332.34L294.292 348.58L275.152 360.412L282.228 341.272L296.728 332.34Z" fill="#233A50"/>
<path d="M301.368 301.6L298.932 317.84L288.492 324.22L295.452 305.196L301.368 301.6Z" fill="#233A50"/>
<path d="M341.504 365.748H271.324C269.236 365.748 267.612 364.008 267.612 362.036V361.804C267.612 359.716 269.352 358.092 271.324 358.092H341.504C343.592 358.092 345.216 359.832 345.216 361.804V362.036C345.216 364.008 343.592 365.748 341.504 365.748Z" fill="#FF8D76"/>
<path d="M211.7 353.684L196.388 314.708L186.644 319.928L210.54 354.264L211.7 353.684Z" fill="#FEC272"/>
<path d="M171.796 314.708L162.516 324.684L204.508 359.484L206.364 357.744L171.796 314.708Z" fill="#FEC272"/>
<path d="M170.752 340.692L165.416 349.508L200.332 364.936L201.144 363.544L170.752 340.692Z" fill="#FEC272"/>
<path d="M437.552 433.492L435.116 450.196C435.116 450.196 442.192 449.848 447.528 454.372C454.488 460.404 455.3 465.972 455.3 465.972L481.516 452.632C481.516 452.632 464 458.432 458.2 452.516C452.4 446.6 457.272 434.652 457.272 434.652C457.272 434.652 449.5 444.744 443.7 443.004C438.016 441.38 437.552 433.492 437.552 433.492Z" fill="#FEC272"/>
</svg>
