<svg height="256" viewBox="0 0 256 256" data-name="图层 1" width="256" id="图层_1" xmlns="http://www.w3.org/2000/svg">
    <defs>
        <style>.cls-1{fill:#37474f;}.cls-2{fill:#4dd0e1;}.cls-3{fill:#fff;}.cls-4{fill:#7cb342;}</style>
    </defs>
    <title>实验试验</title>
    <g transform="matrix(0.27825301,0,0,0.27825301,-14.469157,-14.463204)">
        <path class="cls-1" d="M748.23,856H389.31a469.44,469.44,0,0,0-19.08-48.6l70.16-19.1a16.61,16.61,0,0,0,11.7-20.43L446.7,748l238.55-65a16.71,16.71,0,0,0,10.13-7.85A16.47,16.47,0,0,0,697,662.63l-10.1-37.13c-2.43-8.75-11.16-13.91-20.44-11.63L301.25,713.32a11.1,11.1,0,0,0-1.5.76C248.5,587.7,262,501.31,341.32,450.87l23.6,47.67A16.69,16.69,0,0,0,379.44,507a16.32,16.32,0,0,0,7.07-1.84l16,32.84,2.06,7.57c3.76,13.79,11.19,41.07,11.84,43.12,1.39,4.37,13.5,21.1,24.73,21.1a23.67,23.67,0,0,0,4.36-.57l39.46-10.75c5.93-1.61,10.47-6.33,12.26-14,2.85-11.68,3.33-15.42,2.34-19.12l-13.28-48-3.74-44.49,15.27,13.88,28.9,51.48c1.84,3.25,4.7,5.51,16.47,12.86a16.58,16.58,0,0,0,9,2.64,16.85,16.85,0,0,0,8.11-2.1L596,531.68c5.36-3,8.62-8.73,8.49-16.41,0-12.14-.47-15.93-2.38-19.3l-28.84-51.35-6.58-35.1a16.27,16.27,0,0,0-1.61-3.62l19.24-10.73a16.66,16.66,0,0,0,6.44-22.57l-9.61-17.4A16.58,16.58,0,0,0,559.72,348l-71.59,31.61-61-223.91a16.62,16.62,0,0,0-20.44-11.69l-6.62,1.8-10.38-38.18a11.49,11.49,0,0,0-14.1-8.07l-88.79,24.15a11.53,11.53,0,0,0-8.09,14.12l10.41,38.2-6.61,1.8a16.63,16.63,0,0,0-11.66,20.59l4.93,17.15c-34.31,3.49-61.28,32.21-61.28,67.42A68,68,0,0,0,259,346.66c-131.84,83.13-180.41,262-123.83,471.9C129.06,832.9,124.28,846,121,856H101.46A49.49,49.49,0,0,0,52,905.42v50A16.64,16.64,0,0,0,68.65,972H781a16.65,16.65,0,0,0,16.65-16.63v-50A49.47,49.47,0,0,0,748.23,856ZM673.1,662.54,429.54,728.87A11.52,11.52,0,0,0,421.48,743l6.76,24.8-68.49,18.64c-10.56-19.65-23.46-39.15-38.89-54.59l345.48-94.11ZM458.81,465.14l3.88,44.53-42.91,11.66-13-27.16Zm16.46,112.14-32.3,9c-1.93-1.76-4.4-4.48-4.67-4.56-.72-2.35-6.81-24.73-10.61-38.7l39-10.61,10.18,37.38C476.64,571.63,476,574.36,475.27,577.28ZM508.51,465.4l-15.2-13.84,52.37-29.2,3.8,20.22Zm73,48-29.15,16.26c-2.11-1.31-4.78-3-6.44-4.26L522.56,483.9l35.34-19.68,23.36,41.6C581.46,507.67,581.48,510.46,581.48,513.43Zm-17.67-142,3.75,6.79L382.15,481.55,361.9,440.62l116.9-31.84a14.51,14.51,0,0,0,1.53-.76l.08.19S544.43,380,563.81,371.38Zm-97.16,16.88-112,30.49-24.21-87.31a67.78,67.78,0,0,0-30.18-113.91l-5.51-19.16,111.85-30.46ZM304,142.92l66.57-18.11,7.37,27.09L311.34,170ZM282.65,328.14a45.12,45.12,0,1,1,17.66-3.6.84.84,0,0,0-.14.06A44.86,44.86,0,0,1,282.65,328.14Zm27,17.42c.09,0,.14-.11.22-.15s.39-.23.59-.32l23.19,83.7c-88.32,53.33-109.5,145.21-63,273.65a75.93,75.93,0,0,0-15.49-1.67c-46.56,0-81.12,42.23-104.28,85.12C103.5,578.76,164,407.77,309.6,345.56ZM255.16,723.77c57.12,0,95.57,91.51,109.85,132.23H145.31C159.61,815.28,198.11,723.77,255.16,723.77ZM774.67,949H75V905.42A26.46,26.46,0,0,1,101.46,879H748.23a26.46,26.46,0,0,1,26.44,26.42Z"/>
        <path class="cls-2" d="M673.1,662.54,429.54,728.87A11.52,11.52,0,0,0,421.48,743l6.76,24.8-68.49,18.64c-10.56-19.65-23.46-39.15-38.89-54.59l345.48-94.11Z"/>
        <polygon class="cls-3" points="458.81 465.14 462.69 509.67 419.79 521.33 406.74 494.17 458.81 465.14"/>
        <path class="cls-4" d="M475.27,577.28l-32.3,9c-1.93-1.76-4.4-4.48-4.67-4.56-.72-2.35-6.81-24.73-10.61-38.7l39-10.61,10.18,37.38C476.64,571.63,476,574.36,475.27,577.28Z"/>
        <polygon class="cls-3" points="508.51 465.4 493.31 451.56 545.68 422.37 549.48 442.58 508.51 465.4"/>
        <path class="cls-4" d="M581.48,513.43l-29.15,16.26c-2.11-1.31-4.78-3-6.44-4.26L522.56,483.9l35.34-19.68,23.36,41.6C581.46,507.67,581.48,510.46,581.48,513.43Z"/>
        <path class="cls-3" d="M563.81,371.38l3.75,6.79L382.15,481.55,361.9,440.62l116.9-31.84a14.51,14.51,0,0,0,1.53-.76l.08.19S544.43,380,563.81,371.38Z"/>
        <path class="cls-3" d="M932.86,600.13c-7.82-.4-15.43-2-17.25-3.41a11.49,11.49,0,0,0-14.2-2.15l-34.84,20.1a11.2,11.2,0,0,0-5.3,13.1c.36,2.5-2,10-5.59,16.92H827c-3.57-7-6-14.39-5.68-16.66a11.5,11.5,0,0,0-5.24-13.36l-34.83-20.1a11.22,11.22,0,0,0-14,2c-2,1.55-9.63,3.19-17.45,3.59l-14.35-24.86c4.25-6.56,9.46-12.36,11.59-13.23a11.49,11.49,0,0,0,9-11.21V510.6a11.19,11.19,0,0,0-8.69-11.14c-2.34-.93-7.61-6.75-11.83-13.31l14.32-24.85c7.82.38,15.43,2,17.25,3.4a11.51,11.51,0,0,0,14.2,2.16l34.83-20.12a11.18,11.18,0,0,0,5.3-13.1c-.35-2.47,2.07-9.93,5.62-16.9h28.7c3.55,6.94,6,14.35,5.66,16.64a11.5,11.5,0,0,0,5.23,13.36l34.84,20.12a11.21,11.21,0,0,0,14-2c2-1.56,9.63-3.2,17.45-3.59l14.32,24.86c-4.22,6.55-9.43,12.36-11.56,13.22a11.52,11.52,0,0,0-9,11.22v40.22A11.18,11.18,0,0,0,935.37,562c2.34.94,7.59,6.75,11.84,13.31Z"/>
        <path class="cls-2" d="M466.65,388.26l-112,30.49-24.21-87.31a67.78,67.78,0,0,0-30.18-113.91l-5.51-19.16,111.85-30.46Z"/>
        <polygon class="cls-4" points="303.97 142.92 370.54 124.81 377.91 151.9 311.34 170.03 303.97 142.92"/>
        <path class="cls-4" d="M282.65,328.14a45.12,45.12,0,1,1,17.66-3.6.84.84,0,0,0-.14.06A44.86,44.86,0,0,1,282.65,328.14Z"/>
        <path class="cls-2" d="M309.6,345.56c.09,0,.14-.11.22-.15s.39-.23.59-.32l23.19,83.7c-88.32,53.33-109.5,145.21-63,273.65a75.93,75.93,0,0,0-15.49-1.67c-46.56,0-81.12,42.23-104.28,85.12C103.5,578.76,164,407.77,309.6,345.56Z"/>
        <path class="cls-4" d="M255.16,723.77c57.12,0,95.57,91.51,109.85,132.23H145.31C159.61,815.28,198.11,723.77,255.16,723.77Z"/>
        <path class="cls-2" d="M774.67,949H75V905.42A26.46,26.46,0,0,1,101.46,879H748.23a26.46,26.46,0,0,1,26.44,26.42Z"/>
        <path class="cls-1" d="M255.16,736.36a53.53,53.53,0,1,0,53.52,53.51A53.59,53.59,0,0,0,255.16,736.36Zm0,84a30.53,30.53,0,1,1,30.52-30.54A30.59,30.59,0,0,1,255.16,820.41Z"/>
        <path class="cls-4" d="M922.23,236.35c.18-2.18.41-4.59.41-7.27s-.23-5.09-.41-7.27c-1.41-16.63,2.16-26.47,25-33.67a154.94,154.94,0,0,0-15.7-37.8c-21.2,11.08-30.7,6.64-41.46-6.13-1.39-1.67-2.94-3.52-4.85-5.42s-3.75-3.46-5.44-4.86c-12.75-10.76-17.18-20.25-6.13-41.47a156,156,0,0,0-37.8-15.68c-7.18,22.85-16.91,26.42-33.66,25a92.61,92.61,0,0,0-14.52,0c-16.48,1.37-26.5-2.13-33.68-25A156.6,156.6,0,0,0,716.2,92.46c11.08,21.23,6.65,30.73-6.15,41.49-1.66,1.41-3.53,3-5.42,4.85s-3.43,3.73-4.82,5.4c-10.76,12.78-20.26,17.25-41.49,6.14a156.74,156.74,0,0,0-15.68,37.82c22.85,7.19,26.42,17,25,33.64-.21,2.18-.41,4.59-.41,7.28s.23,5.09.41,7.27c1.41,16.63-2.18,26.48-25,33.66a156.24,156.24,0,0,0,15.68,37.82c21.23-11.05,30.73-6.63,41.49,6.13,1.41,1.67,2.94,3.53,4.85,5.42s3.75,3.44,5.41,4.84c12.76,10.76,17.18,20.25,6.13,41.47A155,155,0,0,0,754,381.38c7.16-22.86,16.91-26.44,33.66-25a92.48,92.48,0,0,0,14.51,0c2-.16,3.93-.27,5.77-.27,13.23,0,21.61,5.2,27.92,25.29a155.27,155.27,0,0,0,37.8-15.69C862.6,344.47,867,335,879.83,324.21c1.66-1.4,3.52-2.95,5.41-4.85s3.44-3.73,4.83-5.4c10.76-12.78,20.28-17.22,41.48-6.15a155.73,155.73,0,0,0,15.7-37.8C924.39,262.82,920.82,253,922.23,236.35Zm-72.68,47.33a77.21,77.21,0,0,1-109.2-109.19c29.15-29.15,80-29.18,109.18,0A77.29,77.29,0,0,1,849.55,283.68Z"/>
        <path class="cls-1" d="M740.35,174.49a77.21,77.21,0,1,0,109.18,0C820.37,145.31,769.5,145.34,740.35,174.49Zm92.94,92.93c-20.48,20.49-56.2,20.49-76.68,0a54.21,54.21,0,1,1,76.68,0Z"/>
        <path class="cls-1" d="M819.14,204.89a11.5,11.5,0,0,0-16.26,0L795,212.82,787,204.89a11.5,11.5,0,1,0-16.26,16.26l7.93,7.94L770.76,237A11.5,11.5,0,1,0,787,253.28l7.93-7.93,7.93,7.93A11.5,11.5,0,0,0,819.14,237l-7.93-7.93,7.93-7.94A11.5,11.5,0,0,0,819.14,204.89Z"/>
        <path class="cls-1" d="M866.17,519.21H852.81V505.87a11.5,11.5,0,1,0-23,0v13.34H816.47a11.5,11.5,0,0,0,0,23h13.34v13.34a11.5,11.5,0,0,0,23,0V542.21h13.36a11.5,11.5,0,1,0,0-23Z"/>
        <path class="cls-1" d="M949.65,543.85V517.56c11.8-8.4,20.6-25.23,21.05-26.11a11.42,11.42,0,0,0-.27-11l-21-36.4a11.48,11.48,0,0,0-9.41-5.75c-1,0-20-.83-33.13,5.18l-22.8-13.16C882.73,415.88,872.55,399.86,872,399a11.14,11.14,0,0,0-5.37-4.19,180.86,180.86,0,0,0,26.62-14.19,14.15,14.15,0,0,0,4.4-19.28c-7.32-12-7.32-15.44-7.41-15.47a31.34,31.34,0,0,1,4.38-4.09c2.13-1.79,4.45-3.77,6.87-6.19s4.38-4.74,6.18-6.85c1.39-1.66,3.3-3.94,3.7-4.25.39.12,3.89,0,15.79,7.24a14.21,14.21,0,0,0,19.32-4.34,178.75,178.75,0,0,0,25.2-60.76A14.09,14.09,0,0,0,961.16,250c-13.57-3.29-16.08-5.71-16.2-5.71h0a32.65,32.65,0,0,1,.2-6c.25-2.76.5-5.81.5-9.23s-.25-6.47-.5-9.23c-.18-2.16-.42-5.12-.38-5.63.22-.27,2.61-2.72,16.35-6.05a14.16,14.16,0,0,0,10.58-16.74,179.22,179.22,0,0,0-25.18-60.68,14.13,14.13,0,0,0-19.29-4.39c-12.08,7.37-15.48,7.31-15.45,7.4a31.76,31.76,0,0,1-4.09-4.37c-1.78-2.12-3.78-4.46-6.18-6.86s-4.74-4.41-6.87-6.19c-1.66-1.4-3.93-3.31-4.25-3.71,0-.35-.09-3.76,7.32-15.92a14.1,14.1,0,0,0-4.42-19.18,178.76,178.76,0,0,0-60.69-25.18,14,14,0,0,0-16.73,10.53c-3.35,13.79-5.8,16.16-5.71,16.2a31.92,31.92,0,0,1-6-.2,120.49,120.49,0,0,0-18.42,0c-2.16.18-5.23.35-5.66.38-.27-.22-2.72-2.59-6-16.34A14.3,14.3,0,0,0,757.3,52.34a178.78,178.78,0,0,0-60.68,25.18,14.14,14.14,0,0,0-4.4,19.27c7.34,12,7.32,15.47,7.41,15.47a31.34,31.34,0,0,1-4.38,4.09c-2.11,1.79-4.45,3.76-6.87,6.19s-4.39,4.74-6.18,6.86c-1.4,1.66-3.3,3.93-3.71,4.26-.4,0-3.86,0-15.86-7.3a14.06,14.06,0,0,0-19.24,4.38,178.92,178.92,0,0,0-25.16,60.61,14.19,14.19,0,0,0,10.49,16.82c13.59,3.29,16.1,5.72,16.22,5.72.24.85,0,3.82-.2,6-.23,2.77-.48,5.82-.48,9.22s.25,6.45.5,9.21c.18,2.17.42,5.13.35,5.64-.22.27-2.58,2.71-16.41,6.08a14.19,14.19,0,0,0-10.49,16.7,179.39,179.39,0,0,0,25.26,60.87,14.15,14.15,0,0,0,19.16,4.21c12.11-7.36,15.52-7.31,15.51-7.4a32,32,0,0,1,4.06,4.37c1.79,2.11,3.77,4.45,6.18,6.85s4.76,4.4,6.87,6.19c1.66,1.4,3.93,3.31,4.25,3.71,0,.35.08,3.74-7.28,15.82a14.17,14.17,0,0,0,4.37,19.31,179.34,179.34,0,0,0,60.69,25.16,13.65,13.65,0,0,0,3,.33A14.09,14.09,0,0,0,774,395.29c3.34-13.79,5.79-16.16,5.7-16.21a32,32,0,0,1,6,.2,118,118,0,0,0,18.42,0c2.15-.17,5.09-.41,5.66-.38.26.23,2.67,2.63,5.94,16a11.24,11.24,0,0,0-5.11,4.14c-1.35,2.08-10.85,17.37-12.13,31.27l-22.71,13.11c-12.67-5.85-30.68-5.22-33.17-5.15a11.48,11.48,0,0,0-9.41,5.75l-21,36.4a11.42,11.42,0,0,0-.27,11c.44.88,9.25,17.71,21,26.11v26.29c-11.81,8.4-20.6,25.26-21,26.13a11.42,11.42,0,0,0,.27,11l21,36.38a11.46,11.46,0,0,0,9.41,5.75c2.49.11,20.48.73,33.17-5.15L798.5,631.1c1.28,13.9,10.78,29.2,12.13,31.28a11.47,11.47,0,0,0,9.68,5.31h42A11.5,11.5,0,0,0,872,662.4c.54-.83,10.72-16.87,12.08-31.29L906.85,618c12.71,5.88,30.7,5.27,33.17,5.15a11.46,11.46,0,0,0,9.41-5.75l21-36.38a11.42,11.42,0,0,0,.27-11C970.25,569.11,961.47,552.25,949.65,543.85ZM808,356.09c-1.84,0-3.75.11-5.77.27a92.48,92.48,0,0,1-14.51,0c-16.75-1.42-26.5,2.16-33.66,25a155,155,0,0,1-37.81-15.69c11-21.22,6.63-30.71-6.13-41.47-1.66-1.4-3.53-2.94-5.41-4.84s-3.44-3.75-4.85-5.42c-10.76-12.76-20.26-17.18-41.49-6.13A156.24,156.24,0,0,1,642.64,270c22.85-7.18,26.44-17,25-33.66-.18-2.18-.41-4.57-.41-7.27s.2-5.1.41-7.28c1.39-16.62-2.18-26.45-25-33.64a156.74,156.74,0,0,1,15.68-37.82c21.23,11.11,30.73,6.64,41.49-6.14,1.39-1.67,2.94-3.52,4.82-5.4s3.76-3.44,5.42-4.85c12.8-10.76,17.23-20.26,6.15-41.49A156.6,156.6,0,0,1,754,76.78c7.18,22.89,17.2,26.39,33.68,25a92.61,92.61,0,0,1,14.52,0c16.75,1.4,26.48-2.17,33.66-25a156,156,0,0,1,37.8,15.68c-11,21.22-6.62,30.71,6.13,41.47,1.69,1.4,3.53,2.95,5.44,4.86s3.46,3.75,4.85,5.42c10.76,12.77,20.26,17.21,41.46,6.13a154.94,154.94,0,0,1,15.7,37.8c-22.86,7.2-26.43,17-25,33.67.18,2.18.41,4.59.41,7.27s-.23,5.09-.41,7.27c-1.41,16.62,2.16,26.47,25,33.66a155.73,155.73,0,0,1-15.7,37.8c-21.2-11.07-30.72-6.63-41.48,6.15-1.39,1.67-2.94,3.53-4.83,5.4s-3.75,3.45-5.41,4.85C867,335,862.6,344.47,873.67,365.69a155.27,155.27,0,0,1-37.8,15.69C829.56,361.29,821.18,356.09,808,356.09Zm124.91,244c-7.82-.4-15.43-2-17.25-3.41a11.49,11.49,0,0,0-14.2-2.15l-34.84,20.1a11.2,11.2,0,0,0-5.3,13.1c.36,2.5-2,10-5.59,16.92H827c-3.57-7-6-14.39-5.68-16.66a11.5,11.5,0,0,0-5.24-13.36l-34.83-20.1a11.22,11.22,0,0,0-14,2c-2,1.55-9.63,3.19-17.45,3.59l-14.35-24.86c4.25-6.56,9.46-12.36,11.59-13.23a11.49,11.49,0,0,0,9-11.21V510.6a11.19,11.19,0,0,0-8.69-11.14c-2.34-.93-7.61-6.75-11.83-13.31l14.32-24.85c7.82.38,15.43,2,17.25,3.4a11.51,11.51,0,0,0,14.2,2.16l34.83-20.12a11.18,11.18,0,0,0,5.3-13.1c-.35-2.47,2.07-9.93,5.62-16.9h28.7c3.55,6.94,6,14.35,5.66,16.64a11.5,11.5,0,0,0,5.23,13.36l34.84,20.12a11.21,11.21,0,0,0,14-2c2-1.56,9.63-3.2,17.45-3.59l14.32,24.86c-4.22,6.55-9.43,12.36-11.56,13.22a11.52,11.52,0,0,0-9,11.22v40.22A11.18,11.18,0,0,0,935.37,562c2.34.94,7.59,6.75,11.84,13.31Z"/>
    </g>
</svg>
