<?xml version='1.0' encoding='UTF-8'?>
<svg height="256" xmlns:xlink="http://www.w3.org/1999/xlink" viewBox="0 0 256 256" width="256" xmlns="http://www.w3.org/2000/svg" version="1.1">
    <g transform="matrix(1,0,0,1,-9.3404534e-15,-1.1281821e-07)">
        <g transform="matrix(4.0636387,0,0,4.0636387,0,8.1226569)">
            <g id="surface1">
                <path style=" stroke:none;fill-rule:nonzero;fill:rgb(89.102173%,89.324951%,89.598083%);fill-opacity:1;" d="M 62 29.5 C 62 45.792969 48.792969 59 32.5 59 C 16.207031 59 3 45.792969 3 29.5 C 3 13.207031 16.207031 0 32.5 0 C 48.792969 0 62 13.207031 62 29.5 "/>
                <path style=" stroke:none;fill-rule:nonzero;fill:rgb(61.161804%,80.255127%,93.800354%);fill-opacity:1;" d="M 59 46 L 35.996094 46 L 34 48 L 26 48 L 24.003906 46 L 1 46 L 1 10 L 59 10 L 59 46 "/>
                <path style="fill:none;stroke-width:20;stroke-linecap:butt;stroke-linejoin:miter;stroke:rgb(22.343445%,31.75354%,52.203369%);stroke-opacity:1;stroke-miterlimit:10;" transform="matrix(0.1,0,0,-0.1,0,59)" d="M 590 130 L 359.960938 130 L 340 110 L 260 110 L 240.039062 130 L 10 130 L 10 490 L 590 490 Z M 590 130 "/>
                <path style=" stroke:none;fill-rule:nonzero;fill:rgb(100%,100%,100%);fill-opacity:1;" d="M 32 44 L 30 44 L 30 13 C 30 9.75 31.953125 7 36 7 L 54 7 L 54 42 L 36 42 C 34.0625 42 32.75 42.542969 32 44 "/>
                <path style="fill:none;stroke-width:20;stroke-linecap:butt;stroke-linejoin:miter;stroke:rgb(22.343445%,31.75354%,52.203369%);stroke-opacity:1;stroke-miterlimit:10;" transform="matrix(0.1,0,0,-0.1,0,59)" d="M 320 150 L 300 150 L 300 460 C 300 492.5 319.53125 520 360 520 L 540 520 L 540 170 L 360 170 C 340.625 170 327.5 164.570312 320 150 Z M 320 150 "/>
                <path style=" stroke:none;fill-rule:nonzero;fill:rgb(100%,100%,100%);fill-opacity:1;" d="M 28 44 L 30 44 L 30 13 C 30 9.75 28.046875 7 24 7 L 6 7 L 6 42 L 24 42 C 25.9375 42 27.25 42.542969 28 44 "/>
                <path style="fill:none;stroke-width:20;stroke-linecap:butt;stroke-linejoin:miter;stroke:rgb(22.343445%,31.75354%,52.203369%);stroke-opacity:1;stroke-miterlimit:10;" transform="matrix(0.1,0,0,-0.1,0,59)" d="M 280 150 L 300 150 L 300 460 C 300 492.5 280.46875 520 240 520 L 60 520 L 60 170 L 240 170 C 259.375 170 272.5 164.570312 280 150 Z M 280 150 "/>
                <path style=" stroke:none;fill-rule:nonzero;fill:rgb(100%,100%,100%);fill-opacity:1;" d="M 61.753906 43.945312 L 44 31 L 44 52.941406 C 44.011719 53.605469 44.53125 53.832031 45.0625 53.320312 L 50.027344 48.503906 L 54.824219 56.976562 C 55.226562 57.636719 56.175781 57.78125 56.941406 57.300781 L 58.949219 56.035156 C 59.699219 55.5625 59.996094 54.660156 59.617188 54 L 55 46 L 61.042969 46 C 61.808594 45.882812 62.332031 44.332031 61.753906 43.945312 "/>
                <path style="fill:none;stroke-width:20;stroke-linecap:butt;stroke-linejoin:miter;stroke:rgb(22.343445%,31.75354%,52.203369%);stroke-opacity:1;stroke-miterlimit:10;" transform="matrix(0.1,0,0,-0.1,0,59)" d="M 617.539062 150.546875 L 440 280 L 440 60.585938 C 440.117188 53.945312 445.3125 51.679688 450.625 56.796875 L 500.273438 104.960938 L 548.242188 20.234375 C 552.265625 13.632812 561.757812 12.1875 569.414062 16.992188 L 589.492188 29.648438 C 596.992188 34.375 599.960938 43.398438 596.171875 50 L 550 130 L 610.429688 130 C 618.085938 131.171875 623.320312 146.679688 617.539062 150.546875 Z M 617.539062 150.546875 "/>
                <path style="fill:none;stroke-width:20;stroke-linecap:butt;stroke-linejoin:miter;stroke:rgb(22.343445%,31.75354%,52.203369%);stroke-opacity:1;stroke-miterlimit:10;" transform="matrix(0.1,0,0,-0.1,0,59)" d="M 430 330 L 430 370 "/>
                <path style="fill:none;stroke-width:20;stroke-linecap:butt;stroke-linejoin:miter;stroke:rgb(22.343445%,31.75354%,52.203369%);stroke-opacity:1;stroke-miterlimit:10;" transform="matrix(0.1,0,0,-0.1,0,59)" d="M 402.695312 327.265625 L 385 357.929688 "/>
                <path style="fill:none;stroke-width:20;stroke-linecap:butt;stroke-linejoin:miter;stroke:rgb(22.343445%,31.75354%,52.203369%);stroke-opacity:1;stroke-miterlimit:10;" transform="matrix(0.1,0,0,-0.1,0,59)" d="M 382.734375 307.304688 L 352.070312 325 "/>
                <path style="fill:none;stroke-width:20;stroke-linecap:butt;stroke-linejoin:miter;stroke:rgb(22.343445%,31.75354%,52.203369%);stroke-opacity:1;stroke-miterlimit:10;" transform="matrix(0.1,0,0,-0.1,0,59)" d="M 380 280 L 340 280 "/>
                <path style="fill:none;stroke-width:20;stroke-linecap:butt;stroke-linejoin:miter;stroke:rgb(22.343445%,31.75354%,52.203369%);stroke-opacity:1;stroke-miterlimit:10;" transform="matrix(0.1,0,0,-0.1,0,59)" d="M 457.265625 327.265625 L 474.960938 357.929688 "/>
                <path style="fill:none;stroke-width:20;stroke-linecap:butt;stroke-linejoin:miter;stroke:rgb(22.343445%,31.75354%,52.203369%);stroke-opacity:1;stroke-miterlimit:10;" transform="matrix(0.1,0,0,-0.1,0,59)" d="M 382.734375 252.65625 L 352.070312 234.921875 "/>
                <path style=" stroke:none;fill-rule:nonzero;fill:rgb(100%,100%,100%);fill-opacity:1;" d="M 28 44 L 30 44 L 30 13 C 30 9.75 28.625 6.472656 25.4375 5.378906 L 11 1.058594 L 11 36.058594 L 25.4375 40.378906 C 27.1875 41.0625 27.625 42.3125 28 44 "/>
                <path style="fill:none;stroke-width:20;stroke-linecap:butt;stroke-linejoin:round;stroke:rgb(22.343445%,31.75354%,52.203369%);stroke-opacity:1;stroke-miterlimit:10;" transform="matrix(0.1,0,0,-0.1,0,59)" d="M 280 150 L 300 150 L 300 460 C 300 492.5 286.25 525.273438 254.375 536.210938 L 110 579.414062 L 110 229.414062 L 254.375 186.210938 C 271.875 179.375 276.25 166.875 280 150 Z M 280 150 "/>
            </g>
        </g>
    </g>
</svg>
