<svg width="582" height="474" viewBox="0 0 582 474" fill="none" xmlns="http://www.w3.org/2000/svg">
<path d="M468.768 354.243C461.063 370.639 409.355 368.553 403.362 382.564C397.369 396.576 450.105 395.235 448.393 412.824C446.681 430.413 414.834 433.096 357.646 435.928C300.458 438.761 287.788 451.878 230.6 468.126C173.412 484.373 148.243 463.356 116.225 448.151C84.3775 433.096 23.2517 460.822 4.07497 437.419C-15.1018 413.867 37.1206 405.52 83.179 396.427C129.409 387.185 108.52 382.862 107.321 363.335C107.15 359.311 108.52 356.18 111.088 353.646C121.532 343.808 151.839 343.659 188.137 344.256C233.853 345.15 245.325 331.883 309.019 333.076C367.748 334.119 459.865 337.25 468.255 350.516C469.282 351.709 469.453 352.901 468.768 354.243Z" fill="#516A91"/>
<path d="M580.815 383.475C580.104 384.434 578.918 385.394 577.494 386.514C567.294 394.031 533.845 398.669 507.039 398.989C473.828 399.149 439.194 397.71 438.008 384.114C437.059 370.519 521.984 369.72 551.637 371.959C577.257 373.558 585.323 377.557 580.815 383.475Z" fill="#516A91"/>
<path d="M84.3785 381.222C84.0361 381.968 83.3512 382.713 82.4951 383.458C76.6736 388.973 57.6681 392.551 42.4295 392.7C23.5952 392.849 3.73355 391.806 3.21989 381.52C2.70622 371.384 50.9905 370.788 67.7701 372.428C82.3239 373.769 87.1181 376.75 84.3785 381.222Z" fill="#516A91"/>
<path d="M391.034 460.674C374.255 466.487 311.588 466.786 311.759 459.631C311.759 458.736 312.102 457.842 312.786 457.097C317.409 451.432 336.586 448.302 353.879 447.706C374.255 447.109 388.124 449.047 394.288 451.879C399.938 454.563 399.082 457.842 391.034 460.674Z" fill="#516A91"/>
<path d="M231.114 442.934C215.704 447.853 166.735 446.661 167.077 437.866C167.077 436.823 167.419 435.779 167.933 434.736C172.042 427.879 184.884 425.345 199.609 424.898C216.731 424.302 230.771 426.687 236.421 429.519C243.613 432.947 243.784 438.76 231.114 442.934Z" fill="#7B91B5"/>
<path d="M420.998 359.31C411.923 363.186 378.877 362.888 379.049 357.82C379.049 357.223 379.22 356.627 379.562 356.031C382.131 352.155 392.233 350.069 401.478 349.77C412.265 349.472 419.628 350.963 422.71 353.05C425.792 354.988 425.278 357.373 420.998 359.31Z" fill="#7B91B5"/>
<path d="M412.095 412.675C404.732 415.805 377.679 415.507 377.85 411.482C377.85 411.035 378.022 410.439 378.364 409.992C380.419 406.861 388.809 405.073 396.342 404.924C405.246 404.625 411.238 405.967 413.807 407.607C416.033 409.246 415.69 411.184 412.095 412.675Z" fill="#7B91B5"/>
<path d="M330.251 410.14C252.516 428.773 135.915 397.768 136.942 380.03C137.114 377.794 138.141 375.856 140.024 374.067C153.379 361.248 207.828 357.67 257.31 360.205C315.354 363.335 354.564 371.384 371.686 380.03C387.267 387.632 369.974 400.6 330.251 410.14Z" fill="#7B91B5"/>
<path d="M132.834 415.06C125.471 418.637 98.0758 418.339 98.4182 413.718C98.4182 413.122 98.5894 412.675 98.9319 412.078C100.987 408.501 109.376 406.563 116.91 406.265C125.814 405.967 131.806 407.309 134.375 409.246C136.772 411.184 136.429 413.42 132.834 415.06Z" fill="#7B91B5"/>
<path d="M200.75 375.908C200.75 375.908 156.92 363.059 141.876 326.397C128.531 293.878 131.143 277.854 119.277 264.387C118.793 263.832 118.47 263.156 118.343 262.431C118.216 261.707 118.29 260.961 118.557 260.276C118.824 259.59 119.273 258.99 119.856 258.542C120.44 258.094 121.134 257.813 121.866 257.732C147.702 255.022 174.161 275.107 174.161 275.107C174.161 275.107 156.889 190.705 206.509 150.57C254.377 141.968 273.014 135.866 273.014 135.866C273.014 135.866 283.652 160.481 314.116 187.058C336.353 206.456 347.536 232.395 345.387 244.189C355.256 241.037 364.859 219.016 369.716 206.148C370.005 205.396 370.512 204.747 371.172 204.286C371.833 203.825 372.616 203.573 373.422 203.561C374.227 203.55 375.017 203.78 375.691 204.222C376.364 204.664 376.889 205.298 377.199 206.041C387.742 231.301 410.454 302.784 351.667 344.512C278.344 360.698 200.75 375.908 200.75 375.908Z" fill="#FEC272"/>
<path opacity="0.73" d="M206.094 353.754C206.094 353.754 162.746 339.493 152.52 292.051C180.27 294.377 211.19 315.854 211.19 315.854C211.19 315.854 193.048 241.756 217.396 211.568C261.108 205.917 265.949 182.637 265.949 182.637C265.949 182.637 273.114 202.468 301.344 223.72C321.646 239.011 333.065 259.553 332.931 278.083C346.595 272.936 366.961 245.46 366.961 245.46C366.961 245.46 377.504 297.816 348.262 318.045C319.02 338.275 206.094 353.754 206.094 353.754Z" fill="#FF8D76"/>
<path d="M271.161 171.705L205.118 186.306C199.967 187.445 196.715 192.543 197.854 197.694C198.993 202.845 204.091 206.097 209.242 204.958L275.285 190.356C280.435 189.218 283.687 184.119 282.548 178.969C281.41 173.818 276.311 170.566 271.161 171.705Z" fill="#F4F8FF"/>
<path d="M204.371 404.303L363.736 369.069C382.918 364.828 389.283 340.622 374.63 327.503L245.381 211.773L176.971 371.219C169.215 389.293 185.188 408.544 204.371 404.303Z" fill="#F4F8FF"/>
<path d="M269.439 181.866L210.961 194.795L228.738 275.2L287.216 262.271L269.439 181.866Z" fill="#F4F8FF"/>
<path d="M214.696 379.321L343.841 350.768C345.88 350.317 347.755 349.313 349.261 347.865C350.766 346.418 351.842 344.583 352.372 342.563C352.901 340.542 352.863 338.415 352.261 336.415C351.66 334.416 350.518 332.62 348.962 331.228L252.734 245.028L201.81 363.741C200.981 365.661 200.698 367.774 200.993 369.844C201.288 371.915 202.15 373.864 203.483 375.476C204.816 377.088 206.569 378.3 208.548 378.978C210.526 379.657 212.654 379.775 214.696 379.321Z" fill="#9FCCF7"/>
<path d="M234.58 317.492C239.231 316.464 242.167 311.861 241.139 307.21C240.111 302.559 235.507 299.623 230.856 300.651C226.206 301.679 223.269 306.283 224.297 310.933C225.326 315.584 229.929 318.521 234.58 317.492Z" fill="#413F4C"/>
<path d="M299.744 303.085C304.395 302.057 307.331 297.453 306.303 292.803C305.275 288.152 300.671 285.215 296.02 286.244C291.37 287.272 288.433 291.876 289.461 296.526C290.49 301.177 295.093 304.113 299.744 303.085Z" fill="#413F4C"/>
<path d="M267.468 311.673C275.569 309.881 284.13 311.337 284.575 315.732C285.021 320.127 275.598 322.123 270.049 323.349C264.501 324.576 256.37 326.069 254.166 323.075C251.961 320.08 257.055 313.975 267.468 311.673Z" fill="white"/>
<g style="mix-blend-mode:multiply" opacity="0.51">
<path d="M229.82 323.565C229.82 323.565 234.131 326.028 240.017 322.245" stroke="#5EA2E1" stroke-width="7" stroke-miterlimit="10" stroke-linecap="round"/>
</g>
<g style="mix-blend-mode:multiply" opacity="0.51">
<path d="M306.622 306.586C306.622 306.586 303.751 310.636 296.819 309.687" stroke="#5EA2E1" stroke-width="7" stroke-miterlimit="10" stroke-linecap="round"/>
</g>
<path d="M254.364 175.419L221.91 182.594L244.201 283.417L276.655 276.242L254.364 175.419Z" fill="#9FCCF7"/>
<path d="M224.719 195.323C224.719 195.323 218.07 174.186 191.802 164.001C172.336 156.438 135.389 161.677 138.505 141.677C140.941 126.069 168.044 133.759 183.191 125.054C198.339 116.35 141.611 73.7726 156.243 54.8746C170.875 35.9765 190.517 76.4458 204.867 68.7123C219.218 60.9789 237.878 39.1369 253.926 49.5339C278.018 65.1636 251.466 108.18 262.737 113.421C274.008 118.663 298.117 94.4914 306.803 106.454C319.197 123.541 251.376 158.805 257.182 188.146L224.719 195.323Z" fill="#9FCCF7"/>
<path d="M299.285 54.4555C298.898 54.7937 298.418 55.0071 297.908 55.0679C297.398 55.1286 296.881 55.0339 296.426 54.796C295.971 54.5581 295.598 54.1882 295.357 53.7348C295.115 53.2813 295.016 52.7656 295.073 52.255C295.793 45.9669 297.454 37.1231 301.321 31.5115C308.584 20.9134 324.949 21.7063 325.282 34.6698C325.493 44.2345 309.933 45.2603 299.285 54.4555Z" fill="#9FCCF7"/>
<path d="M139.946 112.025C140.261 112.123 140.599 112.122 140.914 112.023C141.229 111.924 141.506 111.73 141.708 111.469C141.91 111.207 142.026 110.89 142.043 110.56C142.059 110.23 141.974 109.904 141.799 109.624C139.7 106.198 136.373 101.537 132.659 99.3448C125.637 95.1864 116.405 100.029 119.7 107.586C122.113 113.155 131.352 109.581 139.946 112.025Z" fill="#9FCCF7"/>
<path d="M116.01 287.602C116.01 287.602 110.835 281.58 107.046 271.651C102.301 259.219 96.3465 250.326 84.7059 251.182C82.7363 266.775 91.3818 285.53 116.01 287.602Z" fill="#FEC272"/>
<path d="M348.006 185.912C348.006 185.912 338.888 163.736 355.937 148.467C359.63 157.938 362.245 179.193 348.006 185.912Z" fill="#FEC272"/>
<path d="M414.098 294.693C414.098 294.693 423.748 280.007 422.761 255.194C421.774 230.38 437.934 219.749 437.934 219.749C437.934 219.749 435.155 239.85 437.09 261.106C438.711 278.846 424.106 290.236 414.098 294.693Z" fill="#FEC272"/>
<g style="mix-blend-mode:multiply" opacity="0.51">
<path d="M203.366 148.119C203.366 148.119 217.416 155.058 228.032 176.773C235.896 192.859 241.538 220.734 241.538 220.734" stroke="#5EA2E1" stroke-width="10" stroke-miterlimit="10" stroke-linecap="round"/>
</g>
<g style="mix-blend-mode:multiply" opacity="0.51">
<path d="M242.947 103.129C242.947 103.129 235.203 118.317 238.484 147.742" stroke="#5EA2E1" stroke-width="10" stroke-miterlimit="10" stroke-linecap="round"/>
</g>
<g style="mix-blend-mode:multiply" opacity="0.51">
<path d="M246.658 194.043L254.934 231.474" stroke="#5EA2E1" stroke-width="10" stroke-miterlimit="10" stroke-linecap="round"/>
</g>
<path d="M457.766 383.503C457.766 383.503 454.466 377.903 461.566 375.203C468.666 372.503 484.766 370.803 483.166 365.303C481.566 359.803 476.066 349.903 489.866 340.503C503.566 331.203 500.866 327.203 502.766 328.103C504.666 329.003 509.266 334.503 508.466 339.703C507.666 344.903 503.866 346.203 505.666 347.903C507.466 349.503 513.566 343.603 513.566 338.103C513.566 332.603 513.866 328.603 517.866 330.903C521.766 333.203 521.266 336.503 524.066 334.003C526.866 331.503 528.666 326.503 527.466 319.103C526.366 311.703 529.966 306.203 535.166 306.003C540.366 305.803 551.166 315.503 552.066 330.203C552.866 344.903 543.766 356.903 545.066 360.603C546.366 364.403 552.066 362.603 555.066 357.203C557.966 351.803 565.166 360.303 563.266 367.703C561.266 375.103 559.466 383.203 555.066 384.703C550.666 386.203 472.566 385.003 466.666 385.003C460.666 385.003 458.866 385.103 457.766 383.503Z" fill="#FF8D76"/>
<path d="M476.266 381.003C480.366 380.903 492.666 381.003 491.166 374.103C489.666 367.203 487.066 364.303 491.366 358.403C495.666 352.503 500.366 356.103 500.566 359.103C500.766 362.003 499.566 367.903 504.666 367.103C509.766 366.303 509.866 352.503 514.166 351.403C518.466 350.303 519.766 354.503 520.366 358.603C521.066 362.703 526.066 358.303 528.066 353.403C530.066 348.503 529.866 341.803 534.466 339.803C539.066 337.803 541.366 349.303 539.366 359.803C537.366 370.303 535.766 375.503 538.266 376.503C540.766 377.503 545.666 375.003 547.966 378.803C550.266 382.603 546.866 385.203 537.466 385.203C528.166 385.203 480.466 385.203 472.966 385.203C465.266 385.103 466.866 381.203 476.266 381.003Z" fill="#FEC272"/>
</svg>
