<?xml version='1.0' encoding='utf-8'?>
<!-- Generator: Adobe Illustrator 21.0.0, SVG Export Plug-In . SVG Version: 6.00 Build 0)  -->
<svg x="0px" xmlns="http://www.w3.org/2000/svg" xmlns:xlink="http://www.w3.org/1999/xlink" version="1.1" height="256" style="enable-background:new 0 0 256 256;" id="图层_1" y="0px" xml:space="preserve" viewBox="0 0 256 256" width="256">
    <style type="text/css">&#xd;
	.st0{fill:#FFFFFF;}&#xd;
	.st1{fill:#FFDEAD;}&#xd;
	.st2{fill:#FFC670;}&#xd;
	.st3{fill:#83A8FF;}&#xd;
	.st4{fill:#B1C6FF;}&#xd;
	.st5{fill:#5B75FF;}&#xd;
	.st6{fill:#FFF6E6;}&#xd;
	.st7{fill:#FF9A42;}&#xd;
	.st8{fill:#FFB96B;}&#xd;
	.st9{fill:#7BACF1;}&#xd;
	.st10{fill:none;stroke:#5B75FF;stroke-width:3.0007;stroke-linecap:round;stroke-linejoin:round;stroke-miterlimit:10;}&#xd;
	.st11{fill:url(#SVGID_1_);}&#xd;
	.st12{fill:#4B53FF;}&#xd;
	.st13{fill:url(#SVGID_2_);}&#xd;
	.st14{fill:url(#SVGID_3_);}&#xd;
	.st15{fill:url(#SVGID_4_);}&#xd;
	.st16{fill:url(#SVGID_5_);}&#xd;
	.st17{fill:url(#SVGID_6_);}&#xd;
	.st18{fill:#FFB34B;}&#xd;
	.st19{fill:none;stroke:#4B53FF;stroke-width:3.0608;stroke-linecap:round;stroke-linejoin:round;stroke-miterlimit:10;}&#xd;
	.st20{fill:url(#SVGID_7_);}&#xd;
	.st21{fill:url(#SVGID_8_);}&#xd;
	.st22{fill:url(#SVGID_9_);}&#xd;
	.st23{fill:url(#SVGID_10_);}&#xd;
	.st24{fill:#FFD18F;}&#xd;
	.st25{fill:url(#SVGID_11_);}&#xd;
	.st26{fill:url(#SVGID_12_);}&#xd;
	.st27{fill:url(#SVGID_13_);}&#xd;
	.st28{fill:url(#SVGID_14_);}&#xd;
	.st29{fill:url(#SVGID_15_);}&#xd;
	.st30{fill:none;stroke:#4B53FF;stroke-width:3;stroke-linecap:round;stroke-linejoin:round;stroke-miterlimit:10;}&#xd;
	.st31{fill:#ADC5FF;}&#xd;
	.st32{fill:url(#SVGID_16_);}&#xd;
	.st33{fill:url(#SVGID_17_);}&#xd;
	.st34{fill:url(#SVGID_18_);}&#xd;
	.st35{fill:url(#SVGID_19_);}&#xd;
	.st36{fill:url(#SVGID_20_);}&#xd;
	.st37{fill:url(#SVGID_21_);}&#xd;
	.st38{fill:url(#SVGID_22_);}&#xd;
	.st39{fill:url(#SVGID_23_);}&#xd;
	.st40{fill:url(#SVGID_24_);}&#xd;
	.st41{fill:url(#SVGID_25_);}&#xd;
	.st42{fill:url(#SVGID_26_);}&#xd;
	.st43{fill:#FFA45A;}&#xd;
	.st44{fill:none;stroke:#4B53FF;stroke-width:3.0084;stroke-linecap:round;stroke-linejoin:round;stroke-miterlimit:10;}&#xd;
	.st45{fill:url(#SVGID_27_);}&#xd;
	.st46{fill:url(#SVGID_28_);}&#xd;
	.st47{fill:url(#SVGID_29_);}&#xd;
	.st48{fill:none;stroke:#4B53FF;stroke-width:3.0157;stroke-linecap:round;stroke-linejoin:round;stroke-miterlimit:10;}&#xd;
	.st49{fill:url(#SVGID_30_);}&#xd;
	.st50{fill:url(#SVGID_31_);}&#xd;
	.st51{fill:url(#SVGID_32_);}&#xd;
	.st52{fill:url(#SVGID_33_);}&#xd;
	.st53{fill:url(#SVGID_34_);}&#xd;
	.st54{fill:url(#SVGID_35_);}&#xd;
	.st55{fill:url(#SVGID_36_);}&#xd;
	.st56{fill:url(#SVGID_37_);}&#xd;
	.st57{fill:url(#SVGID_38_);}&#xd;
	.st58{fill:url(#SVGID_39_);}&#xd;
	.st59{fill:url(#SVGID_40_);}&#xd;
	.st60{fill:url(#SVGID_41_);}&#xd;
	.st61{fill:url(#SVGID_42_);}&#xd;
	.st62{fill:url(#SVGID_43_);}&#xd;
	.st63{fill:url(#SVGID_44_);}&#xd;
	.st64{fill:url(#SVGID_45_);}&#xd;
	.st65{fill:url(#SVGID_46_);}&#xd;
</style>
    <linearGradient y1="127.3795" gradientUnits="userSpaceOnUse" y2="127.3795" id="SVGID_1_" x1="-25.725" x2="237.6716">
        <stop style="stop-color:#3F62FF" offset="1.937948e-07"/>
        <stop style="stop-color:#5D84FF" offset="0.2265"/>
        <stop style="stop-color:#87B2FF" offset="0.5749"/>
        <stop style="stop-color:#A0CFFF" offset="0.843"/>
        <stop style="stop-color:#AADAFF" offset="0.9965"/>
    </linearGradient>
    <g transform="matrix(1,0,0,1,4.3504795e-07,-5e-07)">
        <g transform="matrix(1.3487882,0,0,1.3487882,-45.063888,-43.835616)">
            <path class="st11" d="M169.9,220.8H56c-11,0-20-9-20-20V54c0-11,9-20,20-20h113.9c11,0,20,9,20,20v146.8&#xd;&#xa;&#x9;C189.9,211.8,181,220.8,169.9,220.8z"/>
            <path class="st0" d="M65.1,214.1c-11,0-20-8.9-20-19.8V44.6c0-3.7,1.1-7.2,2.9-10.2c-7,3.1-12,10-12,18.1v149.6&#xd;&#xa;&#x9;c0,10.9,8.9,19.8,20,19.8h114c7.3,0,13.6-3.9,17.1-9.6c-2.5,1.1-5.2,1.7-8,1.7H65.1z"/>
            <path class="st30" d="M169.9,220.8H56c-11,0-20-9-20-20V54c0-11,9-20,20-20h113.9c11,0,20,9,20,20v146.8&#xd;&#xa;&#x9;C189.9,211.8,181,220.8,169.9,220.8z"/>
            <path class="st31" d="M162,81.7H63.9c-6.6,0-11.9-5.3-11.9-11.9v0c0-6.6,5.3-11.9,11.9-11.9H162c6.6,0,11.9,5.3,11.9,11.9v0&#xd;&#xa;&#x9;C174,76.4,168.6,81.7,162,81.7z"/>
            <path class="st0" d="M162,81.7H63.9c-6.6,0-11.9-5.3-11.9-11.9v0c0-6.6,5.3-11.9,11.9-11.9H162c6.6,0,11.9,5.3,11.9,11.9v0&#xd;&#xa;&#x9;C174,76.4,168.6,81.7,162,81.7z"/>
            <path class="st30" d="M162,81.7H63.9c-6.6,0-11.9-5.3-11.9-11.9v0c0-6.6,5.3-11.9,11.9-11.9H162c6.6,0,11.9,5.3,11.9,11.9v0&#xd;&#xa;&#x9;C174,76.4,168.6,81.7,162,81.7z"/>
            <line class="st30" y1="116.4" y2="116.4" x1="57.1" x2="125.7"/>
            <line class="st30" y1="156.1" y2="156.1" x1="57.1" x2="106.4"/>
            <line class="st30" y1="189.6" y2="189.6" x1="57.1" x2="126.7"/>
            <g>
                <line class="st30" y1="142.8" y2="194.9" x1="168.4" x2="220"/>
                <linearGradient y1="148.7618" gradientUnits="userSpaceOnUse" y2="148.7618" id="SVGID_2_" x1="136.0567" x2="201.9996">
                    <stop style="stop-color:#FFA45A" offset="1.934025e-07"/>
                    <stop style="stop-color:#FCCC4A" offset="1"/>
                </linearGradient>
                <ellipse class="st13" cx="169" rx="33" cy="148.8" ry="33.3"/>
                <path class="st0" d="M141.7,146.4c0-12.8,7.2-24,17.7-29.5c-13.5,4.2-23.4,16.8-23.4,31.9c0,18.4,14.8,33.3,33,33.3&#xd;&#xa;&#x9;&#x9;c5.5,0,10.7-1.4,15.3-3.8c-3,0.9-6.3,1.4-9.6,1.4C156.5,179.7,141.7,164.8,141.7,146.4z"/>
                <ellipse class="st30" cx="169" rx="32.8" cy="148.8" ry="33.2"/>
            </g>
        </g>
    </g>
</svg>
