<?xml version='1.0' encoding='utf-8'?>
<!-- Generator: Adobe Illustrator 21.0.0, SVG Export Plug-In . SVG Version: 6.00 Build 0)  -->
<svg version="1.1" width="256" height="256" xmlns:xlink="http://www.w3.org/1999/xlink" style="enable-background:new 0 0 256 256;" id="图层_1" y="0px" viewBox="0 0 256 256" xml:space="preserve" x="0px" xmlns="http://www.w3.org/2000/svg">
    <style type="text/css">&#xd;
	.st0{fill:#FFFFFF;}&#xd;
	.st1{fill:#FFDEAD;}&#xd;
	.st2{fill:#FFC670;}&#xd;
	.st3{fill:#83A8FF;}&#xd;
	.st4{fill:#B1C6FF;}&#xd;
	.st5{fill:#5B75FF;}&#xd;
	.st6{fill:#FFF6E6;}&#xd;
	.st7{fill:#FF9A42;}&#xd;
	.st8{fill:#FFB96B;}&#xd;
	.st9{fill:#7BACF1;}&#xd;
	.st10{fill:none;stroke:#5B75FF;stroke-width:3.0007;stroke-linecap:round;stroke-linejoin:round;stroke-miterlimit:10;}&#xd;
	.st11{fill:url(#SVGID_1_);}&#xd;
	.st12{fill:#4B53FF;}&#xd;
	.st13{fill:url(#SVGID_2_);}&#xd;
	.st14{fill:url(#SVGID_3_);}&#xd;
	.st15{fill:url(#SVGID_4_);}&#xd;
	.st16{fill:url(#SVGID_5_);}&#xd;
	.st17{fill:url(#SVGID_6_);}&#xd;
	.st18{fill:#FFB34B;}&#xd;
	.st19{fill:none;stroke:#4B53FF;stroke-width:3.0608;stroke-linecap:round;stroke-linejoin:round;stroke-miterlimit:10;}&#xd;
	.st20{fill:url(#SVGID_7_);}&#xd;
	.st21{fill:url(#SVGID_8_);}&#xd;
	.st22{fill:url(#SVGID_9_);}&#xd;
	.st23{fill:url(#SVGID_10_);}&#xd;
	.st24{fill:#FFD18F;}&#xd;
	.st25{fill:url(#SVGID_11_);}&#xd;
	.st26{fill:url(#SVGID_12_);}&#xd;
	.st27{fill:url(#SVGID_13_);}&#xd;
	.st28{fill:url(#SVGID_14_);}&#xd;
	.st29{fill:url(#SVGID_15_);}&#xd;
	.st30{fill:none;stroke:#4B53FF;stroke-width:3;stroke-linecap:round;stroke-linejoin:round;stroke-miterlimit:10;}&#xd;
	.st31{fill:#ADC5FF;}&#xd;
	.st32{fill:url(#SVGID_16_);}&#xd;
	.st33{fill:url(#SVGID_17_);}&#xd;
	.st34{fill:url(#SVGID_18_);}&#xd;
	.st35{fill:url(#SVGID_19_);}&#xd;
	.st36{fill:url(#SVGID_20_);}&#xd;
	.st37{fill:url(#SVGID_21_);}&#xd;
	.st38{fill:url(#SVGID_22_);}&#xd;
	.st39{fill:url(#SVGID_23_);}&#xd;
	.st40{fill:url(#SVGID_24_);}&#xd;
	.st41{fill:url(#SVGID_25_);}&#xd;
	.st42{fill:url(#SVGID_26_);}&#xd;
	.st43{fill:#FFA45A;}&#xd;
	.st44{fill:none;stroke:#4B53FF;stroke-width:3.0084;stroke-linecap:round;stroke-linejoin:round;stroke-miterlimit:10;}&#xd;
	.st45{fill:url(#SVGID_27_);}&#xd;
	.st46{fill:url(#SVGID_28_);}&#xd;
	.st47{fill:url(#SVGID_29_);}&#xd;
	.st48{fill:none;stroke:#4B53FF;stroke-width:3.0157;stroke-linecap:round;stroke-linejoin:round;stroke-miterlimit:10;}&#xd;
	.st49{fill:url(#SVGID_30_);}&#xd;
	.st50{fill:url(#SVGID_31_);}&#xd;
	.st51{fill:url(#SVGID_32_);}&#xd;
	.st52{fill:url(#SVGID_33_);}&#xd;
	.st53{fill:url(#SVGID_34_);}&#xd;
	.st54{fill:url(#SVGID_35_);}&#xd;
	.st55{fill:url(#SVGID_36_);}&#xd;
	.st56{fill:url(#SVGID_37_);}&#xd;
	.st57{fill:url(#SVGID_38_);}&#xd;
	.st58{fill:url(#SVGID_39_);}&#xd;
	.st59{fill:url(#SVGID_40_);}&#xd;
	.st60{fill:url(#SVGID_41_);}&#xd;
	.st61{fill:url(#SVGID_42_);}&#xd;
	.st62{fill:url(#SVGID_43_);}&#xd;
	.st63{fill:url(#SVGID_44_);}&#xd;
	.st64{fill:url(#SVGID_45_);}&#xd;
	.st65{fill:url(#SVGID_46_);}&#xd;
</style>
    <g transform="matrix(0.99999998,0,0,0.99999998,-1.9999998e-07,-7.95242e-07)">
        <g transform="matrix(1.3202682,0,0,1.3202682,-40.928314,-40.988923)">
            <g>
                <linearGradient x1="-13.0604" x2="210.0901" y2="128.0003" y1="128.0003" id="SVGID_1_" gradientUnits="userSpaceOnUse">
                    <stop offset="1.937948e-07" style="stop-color:#3F62FF"/>
                    <stop offset="0.3149" style="stop-color:#6A93FF"/>
                    <stop offset="0.6127" style="stop-color:#8DB9FF"/>
                    <stop offset="0.8498" style="stop-color:#A2D1FF"/>
                    <stop offset="0.9965" style="stop-color:#AADAFF"/>
                </linearGradient>
                <path d="M183.7,195.4c0,11.1-10.7,20.1-24,20.1H72.1c-13.3,0-24-9-24-20.1l0-123.1c-8.9-1.4-15.6-7.9-15.6-15.8v0&#xd;&#xa;&#x9;&#x9;c0-8.9,8.6-16.1,19.2-16.1h131.7" class="st11"/>
                <path d="M78.8,209.4c-13.3,0-24-9-24-20.1l0-123.1c-8.9-1.4-15.6-7.9-15.6-15.8v0c0-2.7,0.8-5.2,2.2-7.4&#xd;&#xa;&#x9;&#x9;c-5.3,2.9-8.8,7.8-8.8,13.5v0c0,7.8,6.7,14.4,15.6,15.8l0,123.1c0,11.1,10.7,20.1,24,20.1h87.6c8.8,0,16.5-4,20.7-9.9&#xd;&#xa;&#x9;&#x9;c-4,2.4-8.8,3.8-14.1,3.8H78.8z" class="st0"/>
                <linearGradient x1="-79.2492" x2="226.5323" y2="56.4337" y1="56.4485" id="SVGID_2_" gradientUnits="userSpaceOnUse">
                    <stop offset="1.937948e-07" style="stop-color:#3F62FF"/>
                    <stop offset="0.1751" style="stop-color:#718BFF"/>
                    <stop offset="0.3763" style="stop-color:#A3B4FF"/>
                    <stop offset="0.5662" style="stop-color:#CBD4FF"/>
                    <stop offset="0.739" style="stop-color:#E8ECFF"/>
                    <stop offset="0.8893" style="stop-color:#F9FAFF"/>
                    <stop offset="1" style="stop-color:#FFFFFF"/>
                </linearGradient>
                <path d="M170.7,71H48.5c-8,0-14.5-6.5-14.5-14.5v-0.2c0-8,6.5-14.5,14.5-14.5h122.3c8,0,14.5,6.5,14.5,14.5v0.2&#xd;&#xa;&#x9;&#x9;C185.2,64.5,178.7,71,170.7,71z" class="st13"/>
                <path d="M199.5,53.4c-1.8-8.9-10.9-15.1-20.8-12.2c-6.7,2-11.2,8.3-11.2,15.3v0c0,8.9,7.2,16.1,16.1,16.1l0,0v55.1l0,0&#xd;&#xa;&#x9;&#x9;h16.1l0,0V56.6v0v-3.1H199.5z" class="st0"/>
                <path d="M199.8,129.2h-16.1c-0.8,0-1.5-0.7-1.5-1.5V74.1c-9-0.8-16.1-8.3-16.1-17.5c0-7.7,5-14.6,12.2-16.8&#xd;&#xa;&#x9;&#x9;c5-1.5,10.2-0.9,14.5,1.7c4,2.4,6.9,6.3,8,10.7c0.3,0.3,0.5,0.7,0.5,1.2v74.3C201.3,128.5,200.7,129.2,199.8,129.2z M185.2,126.2&#xd;&#xa;&#x9;&#x9;h13.1V54.3c-0.1-0.2-0.2-0.4-0.3-0.6c-0.8-4-3.3-7.5-6.8-9.6c-3.6-2.2-7.9-2.7-12.1-1.4c-5.9,1.8-10.1,7.5-10.1,13.9&#xd;&#xa;&#x9;&#x9;c0,8,6.6,14.5,14.6,14.5c0.8,0,1.5,0.7,1.5,1.5V126.2z" class="st12"/>
                <path d="M159.7,217H72.1c-14.1,0-25.5-9.7-25.5-21.6l0-121.8c-9.1-2-15.6-8.9-15.6-17C31,46.9,40.3,39,51.7,39h131.7&#xd;&#xa;&#x9;&#x9;c0.8,0,1.5,0.7,1.5,1.5c0,0.8-0.7,1.5-1.5,1.5H51.7C42,42,34,48.5,34,56.6c0,7,6,13,14.3,14.3c0.2,0,0.3,0.1,0.5,0.1l134.9-0.3&#xd;&#xa;&#x9;&#x9;c0,0,0,0,0,0c0.4,0,0.8,0.2,1.1,0.4c0.3,0.3,0.4,0.7,0.4,1.1v123.3C185.2,207.3,173.8,217,159.7,217z M49.6,74l0,121.4&#xd;&#xa;&#x9;&#x9;c0,10.2,10.1,18.6,22.5,18.6h87.6c12.4,0,22.5-8.3,22.5-18.6V73.7L49.6,74z" class="st12"/>
                <path d="M123.1,133.2C123.1,133.2,123.1,133.2,123.1,133.2L69.7,133c-0.8,0-1.5-0.7-1.5-1.5c0-0.8,0.7-1.5,1.5-1.5&#xd;&#xa;&#x9;&#x9;c0,0,0,0,0,0l53.4,0.2c0.8,0,1.5,0.7,1.5,1.5C124.6,132.5,123.9,133.2,123.1,133.2z" class="st12"/>
                <path d="M165.1,191.9C165.1,191.9,165.1,191.9,165.1,191.9l-95.4-0.5c-0.8,0-1.5-0.7-1.5-1.5c0-0.8,0.7-1.5,1.5-1.5&#xd;&#xa;&#x9;&#x9;l95.4,0.5c0.8,0,1.5,0.7,1.5,1.5C166.6,191.2,165.9,191.9,165.1,191.9z" class="st12"/>
                <path d="M154.3,100.1H69.7c-0.8,0-1.5-0.7-1.5-1.5c0-0.8,0.7-1.5,1.5-1.5h84.6c0.8,0,1.5,0.7,1.5,1.5&#xd;&#xa;&#x9;&#x9;C155.8,99.4,155.1,100.1,154.3,100.1z" class="st12"/>
                <g>
                    <linearGradient x1="137.9887" x2="223.4922" y2="130.8775" y1="130.8775" id="SVGID_3_" gradientUnits="userSpaceOnUse">
                        <stop offset="1.934025e-07" style="stop-color:#FFA45A"/>
                        <stop offset="1" style="stop-color:#FCCC4A"/>
                    </linearGradient>
                    <path d="M156.3,173.9L138,156l63.5-64.3c5-5,13.1-5.1,18.1-0.1l0,0c5.1,4.9,5.1,13,0.1,18.1L156.3,173.9z" class="st14"/>
                    <path d="M156.3,173.9L138,156l-13.1,24.3c-2.9,5.3,1.9,9.9,7.2,7L156.3,173.9z" class="st0"/>
                    <path d="M156.3,175.4c-0.4,0-0.8-0.1-1.1-0.4L136.9,157c-0.3-0.3-0.4-0.7-0.5-1.1c0-0.4,0.2-0.8,0.4-1.1l63.5-64.3&#xd;&#xa;&#x9;&#x9;&#x9;c5.5-5.6,14.6-5.7,20.3-0.2c2.7,2.7,4.3,6.3,4.3,10.1c0,3.8-1.4,7.4-4.1,10.1l-63.5,64.3C157.1,175.2,156.7,175.4,156.3,175.4z&#xd;&#xa;&#x9;&#x9;&#x9; M140.1,156l16.1,15.8l62.5-63.2c2.1-2.1,3.3-5,3.2-8c0-3-1.2-5.8-3.4-7.9c-4.5-4.4-11.6-4.3-16,0.1L140.1,156z" class="st12"/>
                    <path d="M128.8,189.7c-1.7,0-3.2-0.6-4.4-1.8c-2.1-2.1-2.4-5.4-0.8-8.4l13.1-24.3c0.2-0.4,0.6-0.7,1.1-0.8&#xd;&#xa;&#x9;&#x9;&#x9;c0.5-0.1,0.9,0.1,1.3,0.4l18.3,17.9c0.3,0.3,0.5,0.8,0.4,1.3c-0.1,0.5-0.3,0.9-0.8,1.1l-24.2,13.4&#xd;&#xa;&#x9;&#x9;&#x9;C131.5,189.4,130.1,189.7,128.8,189.7z M138.4,158.5L126.2,181c-1,1.8-0.9,3.7,0.2,4.8c1.1,1.1,3,1.2,4.9,0.2l22.5-12.5&#xd;&#xa;&#x9;&#x9;&#x9;L138.4,158.5z" class="st12"/>
                </g>
            </g>
        </g>
    </g>
</svg>
